<mxfile host="app.diagrams.net" modified="2023-11-23T03:51:01.781Z" agent="Mozilla/5.0 (Windows NT 10.0; Win64; x64) AppleWebKit/537.36 (KHTML, like Gecko) Chrome/119.0.0.0 Safari/537.36" etag="FGgUaZUlkIbwQ1SpNaI1" version="22.1.3" type="google">
  <diagram id="R2lEEEUBdFMjLlhIrx00" name="Page-1">
    <mxGraphModel grid="1" page="1" gridSize="10" guides="1" tooltips="1" connect="1" arrows="1" fold="1" pageScale="1" pageWidth="850" pageHeight="1100" math="0" shadow="0" extFonts="Permanent Marker^https://fonts.googleapis.com/css?family=Permanent+Marker">
      <root>
        <mxCell id="0" />
        <mxCell id="1" parent="0" />
        <mxCell id="2zzuOroNykCwQC_N2bHA-1" value="assets" style="whiteSpace=wrap;html=1;align=center;" vertex="1" parent="1">
          <mxGeometry x="1080" y="300" width="100" height="40" as="geometry" />
        </mxCell>
        <mxCell id="2zzuOroNykCwQC_N2bHA-2" value="permissions" style="whiteSpace=wrap;html=1;align=center;" vertex="1" parent="1">
          <mxGeometry x="-140" y="700" width="100" height="40" as="geometry" />
        </mxCell>
        <mxCell id="2zzuOroNykCwQC_N2bHA-4" value="comments" style="whiteSpace=wrap;html=1;align=center;" vertex="1" parent="1">
          <mxGeometry x="230" y="630" width="100" height="40" as="geometry" />
        </mxCell>
        <mxCell id="2zzuOroNykCwQC_N2bHA-5" value="posts" style="whiteSpace=wrap;html=1;align=center;" vertex="1" parent="1">
          <mxGeometry x="375" y="300" width="100" height="40" as="geometry" />
        </mxCell>
        <mxCell id="2zzuOroNykCwQC_N2bHA-6" value="users" style="whiteSpace=wrap;html=1;align=center;" vertex="1" parent="1">
          <mxGeometry x="-10" y="300" width="100" height="40" as="geometry" />
        </mxCell>
        <mxCell id="2zzuOroNykCwQC_N2bHA-7" value="postassets" style="shape=ext;margin=3;double=1;whiteSpace=wrap;html=1;align=center;" vertex="1" parent="1">
          <mxGeometry x="720" y="300" width="100" height="40" as="geometry" />
        </mxCell>
        <mxCell id="2zzuOroNykCwQC_N2bHA-8" value="rolepermissions" style="shape=ext;margin=3;double=1;whiteSpace=wrap;html=1;align=center;" vertex="1" parent="1">
          <mxGeometry x="-420" y="700" width="100" height="40" as="geometry" />
        </mxCell>
        <mxCell id="2zzuOroNykCwQC_N2bHA-9" value="roles" style="whiteSpace=wrap;html=1;align=center;" vertex="1" parent="1">
          <mxGeometry x="-420" y="500" width="100" height="40" as="geometry" />
        </mxCell>
        <mxCell id="2zzuOroNykCwQC_N2bHA-11" value="userroles" style="shape=ext;margin=3;double=1;whiteSpace=wrap;html=1;align=center;" vertex="1" parent="1">
          <mxGeometry x="-420" y="300" width="100" height="40" as="geometry" />
        </mxCell>
        <mxCell id="2zzuOroNykCwQC_N2bHA-12" value="follows" style="shape=ext;margin=3;double=1;whiteSpace=wrap;html=1;align=center;" vertex="1" parent="1">
          <mxGeometry x="-10" width="100" height="40" as="geometry" />
        </mxCell>
        <mxCell id="2zzuOroNykCwQC_N2bHA-13" value="postreads" style="shape=ext;margin=3;double=1;whiteSpace=wrap;html=1;align=center;" vertex="1" parent="1">
          <mxGeometry x="400" y="810" width="100" height="40" as="geometry" />
        </mxCell>
        <mxCell id="2zzuOroNykCwQC_N2bHA-14" value="tags to posts&amp;nbsp;" style="shape=ext;margin=3;double=1;whiteSpace=wrap;html=1;align=center;" vertex="1" parent="1">
          <mxGeometry x="375" y="140" width="100" height="40" as="geometry" />
        </mxCell>
        <mxCell id="2zzuOroNykCwQC_N2bHA-15" value="tags&amp;nbsp;" style="whiteSpace=wrap;html=1;align=center;" vertex="1" parent="1">
          <mxGeometry x="375" width="100" height="40" as="geometry" />
        </mxCell>
        <mxCell id="2zzuOroNykCwQC_N2bHA-16" value="slugs" style="whiteSpace=wrap;html=1;align=center;" vertex="1" parent="1">
          <mxGeometry x="600" y="100" width="100" height="40" as="geometry" />
        </mxCell>
        <mxCell id="2zzuOroNykCwQC_N2bHA-23" value="" style="endArrow=none;html=1;rounded=0;exitX=0.5;exitY=1;exitDx=0;exitDy=0;entryX=0.5;entryY=0;entryDx=0;entryDy=0;" edge="1" parent="1" source="2zzuOroNykCwQC_N2bHA-24" target="2zzuOroNykCwQC_N2bHA-3">
          <mxGeometry relative="1" as="geometry">
            <mxPoint x="-110" y="670" as="sourcePoint" />
            <mxPoint x="40" y="480" as="targetPoint" />
          </mxGeometry>
        </mxCell>
        <mxCell id="2zzuOroNykCwQC_N2bHA-29" value="" style="endArrow=none;html=1;rounded=0;exitX=1;exitY=0.5;exitDx=0;exitDy=0;" edge="1" parent="1" source="2zzuOroNykCwQC_N2bHA-26">
          <mxGeometry relative="1" as="geometry">
            <mxPoint x="-170" y="319.28999999999996" as="sourcePoint" />
            <mxPoint x="-10" y="319.28999999999996" as="targetPoint" />
          </mxGeometry>
        </mxCell>
        <mxCell id="2zzuOroNykCwQC_N2bHA-30" value="" style="endArrow=none;html=1;rounded=0;exitX=1;exitY=0.5;exitDx=0;exitDy=0;" edge="1" parent="1" source="2zzuOroNykCwQC_N2bHA-26">
          <mxGeometry relative="1" as="geometry">
            <mxPoint x="-210" y="319.87" as="sourcePoint" />
            <mxPoint x="-170" y="319.58" as="targetPoint" />
          </mxGeometry>
        </mxCell>
        <mxCell id="2zzuOroNykCwQC_N2bHA-31" value="" style="endArrow=none;html=1;rounded=0;entryX=0.5;entryY=1;entryDx=0;entryDy=0;exitX=0.5;exitY=0;exitDx=0;exitDy=0;" edge="1" parent="1" source="2zzuOroNykCwQC_N2bHA-34" target="2zzuOroNykCwQC_N2bHA-11">
          <mxGeometry relative="1" as="geometry">
            <mxPoint x="-420" y="320" as="sourcePoint" />
            <mxPoint x="-355" y="319.28999999999996" as="targetPoint" />
          </mxGeometry>
        </mxCell>
        <mxCell id="2zzuOroNykCwQC_N2bHA-39" value="" style="endArrow=none;html=1;rounded=0;exitX=0.5;exitY=0;exitDx=0;exitDy=0;entryX=0.5;entryY=1;entryDx=0;entryDy=0;" edge="1" parent="1" source="2zzuOroNykCwQC_N2bHA-8" target="2zzuOroNykCwQC_N2bHA-9">
          <mxGeometry relative="1" as="geometry">
            <mxPoint x="-530" y="260" as="sourcePoint" />
            <mxPoint x="-530" y="300" as="targetPoint" />
          </mxGeometry>
        </mxCell>
        <mxCell id="2zzuOroNykCwQC_N2bHA-35" value="grantedBy" style="shape=rhombus;double=1;perimeter=rhombusPerimeter;whiteSpace=wrap;html=1;align=center;" vertex="1" parent="1">
          <mxGeometry x="-430" y="590" width="120" height="60" as="geometry" />
        </mxCell>
        <mxCell id="2zzuOroNykCwQC_N2bHA-40" value="create" style="shape=rhombus;double=1;perimeter=rhombusPerimeter;whiteSpace=wrap;html=1;align=center;rotation=0;" vertex="1" parent="1">
          <mxGeometry x="193.53999999999996" y="285" width="86.46" height="70" as="geometry" />
        </mxCell>
        <mxCell id="2zzuOroNykCwQC_N2bHA-43" value="" style="endArrow=none;html=1;rounded=0;exitX=1;exitY=0.5;exitDx=0;exitDy=0;" edge="1" parent="1" source="2zzuOroNykCwQC_N2bHA-6" target="2zzuOroNykCwQC_N2bHA-40">
          <mxGeometry relative="1" as="geometry">
            <mxPoint x="100" y="400" as="sourcePoint" />
            <mxPoint x="260" y="400" as="targetPoint" />
          </mxGeometry>
        </mxCell>
        <mxCell id="2zzuOroNykCwQC_N2bHA-44" value="" style="endArrow=none;html=1;rounded=0;entryX=0;entryY=0.5;entryDx=0;entryDy=0;exitX=1;exitY=0.5;exitDx=0;exitDy=0;" edge="1" parent="1" source="2zzuOroNykCwQC_N2bHA-40" target="2zzuOroNykCwQC_N2bHA-5">
          <mxGeometry relative="1" as="geometry">
            <mxPoint x="100" y="400" as="sourcePoint" />
            <mxPoint x="260" y="400" as="targetPoint" />
          </mxGeometry>
        </mxCell>
        <mxCell id="2zzuOroNykCwQC_N2bHA-46" value="" style="endArrow=none;html=1;rounded=0;exitX=0.5;exitY=0;exitDx=0;exitDy=0;entryX=0.5;entryY=1;entryDx=0;entryDy=0;" edge="1" parent="1" source="2zzuOroNykCwQC_N2bHA-58" target="2zzuOroNykCwQC_N2bHA-5">
          <mxGeometry relative="1" as="geometry">
            <mxPoint x="340" y="600" as="sourcePoint" />
            <mxPoint x="280" y="520" as="targetPoint" />
          </mxGeometry>
        </mxCell>
        <mxCell id="2zzuOroNykCwQC_N2bHA-52" value="" style="endArrow=none;html=1;rounded=0;entryX=1;entryY=0.5;entryDx=0;entryDy=0;" edge="1" parent="1" target="2zzuOroNykCwQC_N2bHA-5">
          <mxGeometry relative="1" as="geometry">
            <mxPoint x="720" y="320" as="sourcePoint" />
            <mxPoint x="-10" y="500" as="targetPoint" />
          </mxGeometry>
        </mxCell>
        <mxCell id="2zzuOroNykCwQC_N2bHA-54" value="" style="endArrow=none;html=1;rounded=0;exitX=0;exitY=0.5;exitDx=0;exitDy=0;entryX=1;entryY=0.5;entryDx=0;entryDy=0;" edge="1" parent="1" source="2zzuOroNykCwQC_N2bHA-1" target="2zzuOroNykCwQC_N2bHA-7">
          <mxGeometry relative="1" as="geometry">
            <mxPoint x="-350" y="500" as="sourcePoint" />
            <mxPoint x="-300" y="500" as="targetPoint" />
          </mxGeometry>
        </mxCell>
        <mxCell id="2zzuOroNykCwQC_N2bHA-55" value="contain" style="shape=rhombus;double=1;perimeter=rhombusPerimeter;whiteSpace=wrap;html=1;align=center;" vertex="1" parent="1">
          <mxGeometry x="880" y="290" width="120" height="60" as="geometry" />
        </mxCell>
        <mxCell id="2zzuOroNykCwQC_N2bHA-3" value="memebers" style="whiteSpace=wrap;html=1;align=center;" vertex="1" parent="1">
          <mxGeometry x="-10" y="820" width="100" height="40" as="geometry" />
        </mxCell>
        <mxCell id="2zzuOroNykCwQC_N2bHA-61" value="" style="endArrow=none;html=1;rounded=0;exitX=0.5;exitY=0;exitDx=0;exitDy=0;entryX=0.5;entryY=1;entryDx=0;entryDy=0;" edge="1" parent="1" source="2zzuOroNykCwQC_N2bHA-4" target="2zzuOroNykCwQC_N2bHA-58">
          <mxGeometry relative="1" as="geometry">
            <mxPoint x="425" y="520" as="sourcePoint" />
            <mxPoint x="425" y="340" as="targetPoint" />
          </mxGeometry>
        </mxCell>
        <mxCell id="2zzuOroNykCwQC_N2bHA-58" value="contaiin" style="shape=rhombus;double=1;perimeter=rhombusPerimeter;whiteSpace=wrap;html=1;align=center;" vertex="1" parent="1">
          <mxGeometry x="220" y="510" width="120" height="60" as="geometry" />
        </mxCell>
        <mxCell id="2zzuOroNykCwQC_N2bHA-63" value="contain" style="shape=rhombus;double=1;perimeter=rhombusPerimeter;whiteSpace=wrap;html=1;align=center;" vertex="1" parent="1">
          <mxGeometry x="540" y="290" width="120" height="60" as="geometry" />
        </mxCell>
        <mxCell id="2zzuOroNykCwQC_N2bHA-65" value="postedBy" style="shape=rhombus;double=1;perimeter=rhombusPerimeter;whiteSpace=wrap;html=1;align=center;" vertex="1" parent="1">
          <mxGeometry x="40" y="650" width="100" height="70" as="geometry" />
        </mxCell>
        <mxCell id="2zzuOroNykCwQC_N2bHA-70" value="updatedWith" style="shape=rhombus;perimeter=rhombusPerimeter;whiteSpace=wrap;html=1;align=center;" vertex="1" parent="1">
          <mxGeometry x="730" y="800" width="120" height="60" as="geometry" />
        </mxCell>
        <mxCell id="2zzuOroNykCwQC_N2bHA-71" value="" style="endArrow=none;html=1;rounded=0;entryX=0;entryY=0.5;entryDx=0;entryDy=0;exitX=1;exitY=0.5;exitDx=0;exitDy=0;" edge="1" parent="1" source="2zzuOroNykCwQC_N2bHA-13" target="2zzuOroNykCwQC_N2bHA-70">
          <mxGeometry relative="1" as="geometry">
            <mxPoint x="440" y="630" as="sourcePoint" />
            <mxPoint x="570" y="580" as="targetPoint" />
          </mxGeometry>
        </mxCell>
        <mxCell id="2zzuOroNykCwQC_N2bHA-72" value="" style="endArrow=none;html=1;rounded=0;exitX=0.5;exitY=0;exitDx=0;exitDy=0;entryX=0.586;entryY=1.014;entryDx=0;entryDy=0;entryPerimeter=0;" edge="1" parent="1" source="2zzuOroNykCwQC_N2bHA-70" target="2zzuOroNykCwQC_N2bHA-10">
          <mxGeometry relative="1" as="geometry">
            <mxPoint x="580" y="660" as="sourcePoint" />
            <mxPoint x="780" y="620" as="targetPoint" />
          </mxGeometry>
        </mxCell>
        <mxCell id="2zzuOroNykCwQC_N2bHA-73" value="updatedWith" style="shape=rhombus;double=1;perimeter=rhombusPerimeter;whiteSpace=wrap;html=1;align=center;" vertex="1" parent="1">
          <mxGeometry x="630" y="455" width="120" height="60" as="geometry" />
        </mxCell>
        <mxCell id="2zzuOroNykCwQC_N2bHA-74" value="" style="endArrow=none;html=1;rounded=0;entryX=0.5;entryY=0;entryDx=0;entryDy=0;exitX=1;exitY=0.5;exitDx=0;exitDy=0;" edge="1" parent="1" source="2zzuOroNykCwQC_N2bHA-5" target="2zzuOroNykCwQC_N2bHA-73">
          <mxGeometry relative="1" as="geometry">
            <mxPoint x="480" y="340" as="sourcePoint" />
            <mxPoint x="630" y="340" as="targetPoint" />
          </mxGeometry>
        </mxCell>
        <mxCell id="2zzuOroNykCwQC_N2bHA-75" value="" style="endArrow=none;html=1;rounded=0;entryX=0.5;entryY=0;entryDx=0;entryDy=0;exitX=0.5;exitY=1;exitDx=0;exitDy=0;" edge="1" parent="1" source="2zzuOroNykCwQC_N2bHA-73" target="2zzuOroNykCwQC_N2bHA-10">
          <mxGeometry relative="1" as="geometry">
            <mxPoint x="420" y="500" as="sourcePoint" />
            <mxPoint x="580" y="500" as="targetPoint" />
          </mxGeometry>
        </mxCell>
        <mxCell id="2zzuOroNykCwQC_N2bHA-76" value="" style="endArrow=none;html=1;rounded=0;exitX=1;exitY=0.5;exitDx=0;exitDy=0;entryX=0.5;entryY=1;entryDx=0;entryDy=0;" edge="1" parent="1" source="2zzuOroNykCwQC_N2bHA-3" target="2zzuOroNykCwQC_N2bHA-65">
          <mxGeometry relative="1" as="geometry">
            <mxPoint x="270" y="520" as="sourcePoint" />
            <mxPoint x="430" y="520" as="targetPoint" />
          </mxGeometry>
        </mxCell>
        <mxCell id="2zzuOroNykCwQC_N2bHA-77" value="" style="endArrow=none;html=1;rounded=0;exitX=0;exitY=0.5;exitDx=0;exitDy=0;entryX=0.5;entryY=0;entryDx=0;entryDy=0;" edge="1" parent="1" source="2zzuOroNykCwQC_N2bHA-4" target="2zzuOroNykCwQC_N2bHA-65">
          <mxGeometry relative="1" as="geometry">
            <mxPoint x="270" y="520" as="sourcePoint" />
            <mxPoint x="430" y="520" as="targetPoint" />
          </mxGeometry>
        </mxCell>
        <mxCell id="2zzuOroNykCwQC_N2bHA-78" value="Relationship" style="shape=rhombus;double=1;perimeter=rhombusPerimeter;whiteSpace=wrap;html=1;align=center;" vertex="1" parent="1">
          <mxGeometry x="390" y="530" width="120" height="60" as="geometry" />
        </mxCell>
        <mxCell id="2zzuOroNykCwQC_N2bHA-79" value="" style="endArrow=none;html=1;rounded=0;exitX=0.5;exitY=1;exitDx=0;exitDy=0;entryX=0.5;entryY=0;entryDx=0;entryDy=0;" edge="1" parent="1" source="2zzuOroNykCwQC_N2bHA-78" target="2zzuOroNykCwQC_N2bHA-13">
          <mxGeometry relative="1" as="geometry">
            <mxPoint x="270" y="520" as="sourcePoint" />
            <mxPoint x="430" y="520" as="targetPoint" />
          </mxGeometry>
        </mxCell>
        <mxCell id="2zzuOroNykCwQC_N2bHA-80" value="" style="endArrow=none;html=1;rounded=0;exitX=0.5;exitY=1;exitDx=0;exitDy=0;entryX=0.5;entryY=0;entryDx=0;entryDy=0;" edge="1" parent="1" source="2zzuOroNykCwQC_N2bHA-5" target="2zzuOroNykCwQC_N2bHA-78">
          <mxGeometry relative="1" as="geometry">
            <mxPoint x="424" y="340" as="sourcePoint" />
            <mxPoint x="424" y="400" as="targetPoint" />
          </mxGeometry>
        </mxCell>
        <mxCell id="2zzuOroNykCwQC_N2bHA-81" value="canRead" style="shape=rhombus;double=1;perimeter=rhombusPerimeter;whiteSpace=wrap;html=1;align=center;" vertex="1" parent="1">
          <mxGeometry x="210" y="810" width="120" height="60" as="geometry" />
        </mxCell>
        <mxCell id="2zzuOroNykCwQC_N2bHA-82" value="" style="endArrow=none;html=1;rounded=0;entryX=0;entryY=0.75;entryDx=0;entryDy=0;" edge="1" parent="1" target="2zzuOroNykCwQC_N2bHA-13">
          <mxGeometry relative="1" as="geometry">
            <mxPoint x="330" y="840" as="sourcePoint" />
            <mxPoint x="430" y="710" as="targetPoint" />
          </mxGeometry>
        </mxCell>
        <mxCell id="2zzuOroNykCwQC_N2bHA-83" value="" style="endArrow=none;html=1;rounded=0;exitX=1;exitY=0.5;exitDx=0;exitDy=0;entryX=0;entryY=0.5;entryDx=0;entryDy=0;" edge="1" parent="1" source="2zzuOroNykCwQC_N2bHA-3" target="2zzuOroNykCwQC_N2bHA-81">
          <mxGeometry relative="1" as="geometry">
            <mxPoint x="170" y="620" as="sourcePoint" />
            <mxPoint x="330" y="620" as="targetPoint" />
          </mxGeometry>
        </mxCell>
        <mxCell id="2zzuOroNykCwQC_N2bHA-86" value="" style="endArrow=none;html=1;rounded=0;entryX=0.5;entryY=1;entryDx=0;entryDy=0;exitX=0.5;exitY=0;exitDx=0;exitDy=0;" edge="1" parent="1" source="2zzuOroNykCwQC_N2bHA-9" target="2zzuOroNykCwQC_N2bHA-34">
          <mxGeometry relative="1" as="geometry">
            <mxPoint x="-250" y="510" as="sourcePoint" />
            <mxPoint x="-250" y="340" as="targetPoint" />
          </mxGeometry>
        </mxCell>
        <mxCell id="2zzuOroNykCwQC_N2bHA-34" value="definedBy" style="shape=rhombus;double=1;perimeter=rhombusPerimeter;whiteSpace=wrap;html=1;align=center;" vertex="1" parent="1">
          <mxGeometry x="-430" y="390" width="120" height="60" as="geometry" />
        </mxCell>
        <mxCell id="2zzuOroNykCwQC_N2bHA-88" value="" style="endArrow=none;html=1;rounded=0;entryX=0;entryY=0.5;entryDx=0;entryDy=0;exitX=1;exitY=0.5;exitDx=0;exitDy=0;" edge="1" parent="1" source="2zzuOroNykCwQC_N2bHA-8" target="2zzuOroNykCwQC_N2bHA-2">
          <mxGeometry relative="1" as="geometry">
            <mxPoint x="-650" y="800" as="sourcePoint" />
            <mxPoint x="-490" y="800" as="targetPoint" />
          </mxGeometry>
        </mxCell>
        <mxCell id="2zzuOroNykCwQC_N2bHA-36" value="definedBy" style="shape=rhombus;double=1;perimeter=rhombusPerimeter;whiteSpace=wrap;html=1;align=center;" vertex="1" parent="1">
          <mxGeometry x="-290" y="690" width="120" height="60" as="geometry" />
        </mxCell>
        <mxCell id="2zzuOroNykCwQC_N2bHA-90" value="" style="endArrow=none;html=1;rounded=0;exitX=0.5;exitY=1;exitDx=0;exitDy=0;entryX=0.5;entryY=0;entryDx=0;entryDy=0;" edge="1" parent="1" source="2zzuOroNykCwQC_N2bHA-14" target="2zzuOroNykCwQC_N2bHA-5">
          <mxGeometry relative="1" as="geometry">
            <mxPoint x="430" y="220" as="sourcePoint" />
            <mxPoint x="590" y="220" as="targetPoint" />
          </mxGeometry>
        </mxCell>
        <mxCell id="2zzuOroNykCwQC_N2bHA-89" value="define" style="shape=rhombus;double=1;perimeter=rhombusPerimeter;whiteSpace=wrap;html=1;align=center;" vertex="1" parent="1">
          <mxGeometry x="365" y="210" width="120" height="60" as="geometry" />
        </mxCell>
        <mxCell id="2zzuOroNykCwQC_N2bHA-92" value="" style="endArrow=none;html=1;rounded=0;exitX=0.5;exitY=1;exitDx=0;exitDy=0;entryX=0.5;entryY=0;entryDx=0;entryDy=0;" edge="1" parent="1" source="2zzuOroNykCwQC_N2bHA-15" target="2zzuOroNykCwQC_N2bHA-14">
          <mxGeometry relative="1" as="geometry">
            <mxPoint x="520" y="30" as="sourcePoint" />
            <mxPoint x="680" y="30" as="targetPoint" />
          </mxGeometry>
        </mxCell>
        <mxCell id="2zzuOroNykCwQC_N2bHA-91" value="contains" style="shape=rhombus;double=1;perimeter=rhombusPerimeter;whiteSpace=wrap;html=1;align=center;" vertex="1" parent="1">
          <mxGeometry x="365" y="60" width="120" height="60" as="geometry" />
        </mxCell>
        <mxCell id="2zzuOroNykCwQC_N2bHA-93" value="linkedTo" style="shape=rhombus;double=1;perimeter=rhombusPerimeter;whiteSpace=wrap;html=1;align=center;" vertex="1" parent="1">
          <mxGeometry x="590" y="180" width="120" height="60" as="geometry" />
        </mxCell>
        <mxCell id="2zzuOroNykCwQC_N2bHA-97" value="" style="endArrow=none;html=1;rounded=0;entryX=0.5;entryY=1;entryDx=0;entryDy=0;exitX=1;exitY=0.25;exitDx=0;exitDy=0;" edge="1" parent="1" source="2zzuOroNykCwQC_N2bHA-5" target="2zzuOroNykCwQC_N2bHA-93">
          <mxGeometry relative="1" as="geometry">
            <mxPoint x="480" y="310" as="sourcePoint" />
            <mxPoint x="520" y="220" as="targetPoint" />
          </mxGeometry>
        </mxCell>
        <mxCell id="2zzuOroNykCwQC_N2bHA-98" value="" style="endArrow=none;html=1;rounded=0;exitX=0.5;exitY=1;exitDx=0;exitDy=0;entryX=0.5;entryY=0;entryDx=0;entryDy=0;" edge="1" parent="1" source="2zzuOroNykCwQC_N2bHA-16" target="2zzuOroNykCwQC_N2bHA-93">
          <mxGeometry relative="1" as="geometry">
            <mxPoint x="500" y="180" as="sourcePoint" />
            <mxPoint x="660" y="180" as="targetPoint" />
          </mxGeometry>
        </mxCell>
        <mxCell id="2zzuOroNykCwQC_N2bHA-99" value="Relationship" style="shape=rhombus;double=1;perimeter=rhombusPerimeter;whiteSpace=wrap;html=1;align=center;" vertex="1" parent="1">
          <mxGeometry x="590" y="-10" width="120" height="60" as="geometry" />
        </mxCell>
        <mxCell id="2zzuOroNykCwQC_N2bHA-103" value="" style="endArrow=none;html=1;rounded=0;exitX=1;exitY=0.5;exitDx=0;exitDy=0;" edge="1" parent="1" source="2zzuOroNykCwQC_N2bHA-15">
          <mxGeometry relative="1" as="geometry">
            <mxPoint x="480" y="20" as="sourcePoint" />
            <mxPoint x="590" y="20" as="targetPoint" />
          </mxGeometry>
        </mxCell>
        <mxCell id="2zzuOroNykCwQC_N2bHA-104" value="" style="endArrow=none;html=1;rounded=0;entryX=0.5;entryY=1;entryDx=0;entryDy=0;" edge="1" parent="1" source="2zzuOroNykCwQC_N2bHA-16" target="2zzuOroNykCwQC_N2bHA-99">
          <mxGeometry relative="1" as="geometry">
            <mxPoint x="500" y="70" as="sourcePoint" />
            <mxPoint x="660" y="70" as="targetPoint" />
          </mxGeometry>
        </mxCell>
        <mxCell id="2zzuOroNykCwQC_N2bHA-110" value="" style="endArrow=none;html=1;rounded=0;entryX=0;entryY=0.5;entryDx=0;entryDy=0;" edge="1" parent="1" target="2zzuOroNykCwQC_N2bHA-15">
          <mxGeometry relative="1" as="geometry">
            <mxPoint x="90" y="20" as="sourcePoint" />
            <mxPoint x="370" y="20" as="targetPoint" />
          </mxGeometry>
        </mxCell>
        <mxCell id="2zzuOroNykCwQC_N2bHA-105" value="filterBy" style="shape=rhombus;perimeter=rhombusPerimeter;whiteSpace=wrap;html=1;align=center;" vertex="1" parent="1">
          <mxGeometry x="180" y="-10" width="120" height="60" as="geometry" />
        </mxCell>
        <mxCell id="2zzuOroNykCwQC_N2bHA-111" value="" style="endArrow=none;html=1;rounded=0;exitX=0.5;exitY=0;exitDx=0;exitDy=0;entryX=0.5;entryY=1;entryDx=0;entryDy=0;" edge="1" parent="1" source="2zzuOroNykCwQC_N2bHA-6" target="2zzuOroNykCwQC_N2bHA-12">
          <mxGeometry relative="1" as="geometry">
            <mxPoint x="-110" y="40" as="sourcePoint" />
            <mxPoint x="50" y="40" as="targetPoint" />
          </mxGeometry>
        </mxCell>
        <mxCell id="2zzuOroNykCwQC_N2bHA-109" value="listOf" style="shape=rhombus;perimeter=rhombusPerimeter;whiteSpace=wrap;html=1;align=center;" vertex="1" parent="1">
          <mxGeometry x="-20" y="110" width="120" height="60" as="geometry" />
        </mxCell>
        <mxCell id="2zzuOroNykCwQC_N2bHA-112" value="Relationship" style="shape=rhombus;double=1;perimeter=rhombusPerimeter;whiteSpace=wrap;html=1;align=center;" vertex="1" parent="1">
          <mxGeometry x="-660" y="100" width="120" height="60" as="geometry" />
        </mxCell>
        <mxCell id="2zzuOroNykCwQC_N2bHA-116" value="" style="endArrow=none;html=1;rounded=0;exitX=0.5;exitY=0;exitDx=0;exitDy=0;" edge="1" parent="1" source="2zzuOroNykCwQC_N2bHA-112">
          <mxGeometry relative="1" as="geometry">
            <mxPoint x="-630" y="20" as="sourcePoint" />
            <mxPoint x="-10" y="20" as="targetPoint" />
            <Array as="points">
              <mxPoint x="-600" y="20" />
            </Array>
          </mxGeometry>
        </mxCell>
        <mxCell id="2zzuOroNykCwQC_N2bHA-117" value="" style="endArrow=none;html=1;rounded=0;exitX=0.5;exitY=1;exitDx=0;exitDy=0;entryX=0;entryY=0.75;entryDx=0;entryDy=0;" edge="1" parent="1" source="2zzuOroNykCwQC_N2bHA-112" target="2zzuOroNykCwQC_N2bHA-3">
          <mxGeometry relative="1" as="geometry">
            <mxPoint x="-620" y="190" as="sourcePoint" />
            <mxPoint x="-460" y="190" as="targetPoint" />
            <Array as="points">
              <mxPoint x="-600" y="850" />
            </Array>
          </mxGeometry>
        </mxCell>
        <mxCell id="2zzuOroNykCwQC_N2bHA-118" value="" style="endArrow=none;html=1;rounded=0;exitX=1;exitY=0.5;exitDx=0;exitDy=0;" edge="1" parent="1" source="2zzuOroNykCwQC_N2bHA-11" target="2zzuOroNykCwQC_N2bHA-26">
          <mxGeometry relative="1" as="geometry">
            <mxPoint x="-320" y="320" as="sourcePoint" />
            <mxPoint x="-170" y="319.58" as="targetPoint" />
          </mxGeometry>
        </mxCell>
        <mxCell id="2zzuOroNykCwQC_N2bHA-26" value="areAssigned" style="shape=rhombus;double=1;perimeter=rhombusPerimeter;whiteSpace=wrap;html=1;align=center;" vertex="1" parent="1">
          <mxGeometry x="-280" y="290" width="120" height="60" as="geometry" />
        </mxCell>
        <mxCell id="2zzuOroNykCwQC_N2bHA-119" value="assetid" style="ellipse;whiteSpace=wrap;html=1;align=center;fontStyle=4;" vertex="1" parent="1">
          <mxGeometry x="1010" y="380" width="100" height="40" as="geometry" />
        </mxCell>
        <mxCell id="2zzuOroNykCwQC_N2bHA-120" value="type" style="ellipse;whiteSpace=wrap;html=1;align=center;" vertex="1" parent="1">
          <mxGeometry x="1190" y="440" width="100" height="40" as="geometry" />
        </mxCell>
        <mxCell id="2zzuOroNykCwQC_N2bHA-121" value="content_path" style="ellipse;whiteSpace=wrap;html=1;align=center;" vertex="1" parent="1">
          <mxGeometry x="1070" y="440" width="100" height="40" as="geometry" />
        </mxCell>
        <mxCell id="2zzuOroNykCwQC_N2bHA-122" value="file_type" style="ellipse;whiteSpace=wrap;html=1;align=center;" vertex="1" parent="1">
          <mxGeometry x="1290" y="390" width="100" height="40" as="geometry" />
        </mxCell>
        <mxCell id="2zzuOroNykCwQC_N2bHA-123" value="file_size" style="ellipse;whiteSpace=wrap;html=1;align=center;" vertex="1" parent="1">
          <mxGeometry x="1290" y="340" width="100" height="40" as="geometry" />
        </mxCell>
        <mxCell id="2zzuOroNykCwQC_N2bHA-124" value="width" style="ellipse;whiteSpace=wrap;html=1;align=center;" vertex="1" parent="1">
          <mxGeometry x="1290" y="280" width="100" height="40" as="geometry" />
        </mxCell>
        <mxCell id="2zzuOroNykCwQC_N2bHA-125" value="height" style="ellipse;whiteSpace=wrap;html=1;align=center;" vertex="1" parent="1">
          <mxGeometry x="1280" y="220" width="100" height="40" as="geometry" />
        </mxCell>
        <mxCell id="2zzuOroNykCwQC_N2bHA-126" value="title" style="ellipse;whiteSpace=wrap;html=1;align=center;" vertex="1" parent="1">
          <mxGeometry x="1170" y="190" width="100" height="40" as="geometry" />
        </mxCell>
        <mxCell id="2zzuOroNykCwQC_N2bHA-127" value="alt" style="ellipse;whiteSpace=wrap;html=1;align=center;" vertex="1" parent="1">
          <mxGeometry x="1050" y="190" width="100" height="40" as="geometry" />
        </mxCell>
        <mxCell id="2zzuOroNykCwQC_N2bHA-129" value="" style="endArrow=none;html=1;rounded=0;exitX=0.5;exitY=1;exitDx=0;exitDy=0;entryX=0.5;entryY=0;entryDx=0;entryDy=0;" edge="1" parent="1" source="2zzuOroNykCwQC_N2bHA-1" target="2zzuOroNykCwQC_N2bHA-119">
          <mxGeometry relative="1" as="geometry">
            <mxPoint x="1320" y="410" as="sourcePoint" />
            <mxPoint x="1480" y="410" as="targetPoint" />
          </mxGeometry>
        </mxCell>
        <mxCell id="2zzuOroNykCwQC_N2bHA-131" value="" style="endArrow=none;html=1;rounded=0;entryX=0.5;entryY=0;entryDx=0;entryDy=0;" edge="1" parent="1" target="2zzuOroNykCwQC_N2bHA-121">
          <mxGeometry relative="1" as="geometry">
            <mxPoint x="1130" y="340" as="sourcePoint" />
            <mxPoint x="1070" y="390" as="targetPoint" />
          </mxGeometry>
        </mxCell>
        <mxCell id="2zzuOroNykCwQC_N2bHA-132" value="" style="endArrow=none;html=1;rounded=0;exitX=0.5;exitY=1;exitDx=0;exitDy=0;entryX=0.5;entryY=0;entryDx=0;entryDy=0;" edge="1" parent="1" source="2zzuOroNykCwQC_N2bHA-1" target="2zzuOroNykCwQC_N2bHA-120">
          <mxGeometry relative="1" as="geometry">
            <mxPoint x="1150" y="360" as="sourcePoint" />
            <mxPoint x="1080" y="400" as="targetPoint" />
          </mxGeometry>
        </mxCell>
        <mxCell id="2zzuOroNykCwQC_N2bHA-133" value="" style="endArrow=none;html=1;rounded=0;exitX=0.5;exitY=1;exitDx=0;exitDy=0;entryX=0;entryY=0.5;entryDx=0;entryDy=0;" edge="1" parent="1" source="2zzuOroNykCwQC_N2bHA-1" target="2zzuOroNykCwQC_N2bHA-122">
          <mxGeometry relative="1" as="geometry">
            <mxPoint x="1160" y="370" as="sourcePoint" />
            <mxPoint x="1090" y="410" as="targetPoint" />
          </mxGeometry>
        </mxCell>
        <mxCell id="2zzuOroNykCwQC_N2bHA-134" value="" style="endArrow=none;html=1;rounded=0;exitX=1;exitY=0.5;exitDx=0;exitDy=0;entryX=0;entryY=0.5;entryDx=0;entryDy=0;" edge="1" parent="1" source="2zzuOroNykCwQC_N2bHA-1" target="2zzuOroNykCwQC_N2bHA-123">
          <mxGeometry relative="1" as="geometry">
            <mxPoint x="1170" y="380" as="sourcePoint" />
            <mxPoint x="1100" y="420" as="targetPoint" />
          </mxGeometry>
        </mxCell>
        <mxCell id="2zzuOroNykCwQC_N2bHA-135" value="" style="endArrow=none;html=1;rounded=0;exitX=1;exitY=0.5;exitDx=0;exitDy=0;entryX=0;entryY=0.5;entryDx=0;entryDy=0;" edge="1" parent="1" source="2zzuOroNykCwQC_N2bHA-1" target="2zzuOroNykCwQC_N2bHA-124">
          <mxGeometry relative="1" as="geometry">
            <mxPoint x="1180" y="390" as="sourcePoint" />
            <mxPoint x="1110" y="430" as="targetPoint" />
          </mxGeometry>
        </mxCell>
        <mxCell id="2zzuOroNykCwQC_N2bHA-136" value="" style="endArrow=none;html=1;rounded=0;entryX=0;entryY=1;entryDx=0;entryDy=0;" edge="1" parent="1" target="2zzuOroNykCwQC_N2bHA-125">
          <mxGeometry relative="1" as="geometry">
            <mxPoint x="1180" y="320" as="sourcePoint" />
            <mxPoint x="1120" y="440" as="targetPoint" />
          </mxGeometry>
        </mxCell>
        <mxCell id="2zzuOroNykCwQC_N2bHA-137" value="" style="endArrow=none;html=1;rounded=0;exitX=0.5;exitY=0;exitDx=0;exitDy=0;entryX=0.5;entryY=1;entryDx=0;entryDy=0;" edge="1" parent="1" source="2zzuOroNykCwQC_N2bHA-1" target="2zzuOroNykCwQC_N2bHA-127">
          <mxGeometry relative="1" as="geometry">
            <mxPoint x="1200" y="410" as="sourcePoint" />
            <mxPoint x="1130" y="450" as="targetPoint" />
          </mxGeometry>
        </mxCell>
        <mxCell id="2zzuOroNykCwQC_N2bHA-138" value="" style="endArrow=none;html=1;rounded=0;exitX=0.5;exitY=0;exitDx=0;exitDy=0;entryX=0.4;entryY=1;entryDx=0;entryDy=0;entryPerimeter=0;" edge="1" parent="1" source="2zzuOroNykCwQC_N2bHA-1" target="2zzuOroNykCwQC_N2bHA-126">
          <mxGeometry relative="1" as="geometry">
            <mxPoint x="1210" y="420" as="sourcePoint" />
            <mxPoint x="1140" y="460" as="targetPoint" />
          </mxGeometry>
        </mxCell>
        <mxCell id="2zzuOroNykCwQC_N2bHA-139" value="post_id" style="ellipse;whiteSpace=wrap;html=1;align=center;" vertex="1" parent="1">
          <mxGeometry x="750" y="190" width="100" height="40" as="geometry" />
        </mxCell>
        <mxCell id="2zzuOroNykCwQC_N2bHA-140" value="assetid" style="ellipse;whiteSpace=wrap;html=1;align=center;" vertex="1" parent="1">
          <mxGeometry x="870" y="190" width="100" height="40" as="geometry" />
        </mxCell>
        <mxCell id="2zzuOroNykCwQC_N2bHA-141" value="" style="endArrow=none;html=1;rounded=0;exitX=0.5;exitY=0;exitDx=0;exitDy=0;entryX=0.5;entryY=1;entryDx=0;entryDy=0;" edge="1" parent="1" source="2zzuOroNykCwQC_N2bHA-7" target="2zzuOroNykCwQC_N2bHA-139">
          <mxGeometry relative="1" as="geometry">
            <mxPoint x="760" y="270" as="sourcePoint" />
            <mxPoint x="920" y="270" as="targetPoint" />
          </mxGeometry>
        </mxCell>
        <mxCell id="2zzuOroNykCwQC_N2bHA-142" value="" style="endArrow=none;html=1;rounded=0;entryX=0.5;entryY=1;entryDx=0;entryDy=0;exitX=0.5;exitY=0;exitDx=0;exitDy=0;" edge="1" parent="1" source="2zzuOroNykCwQC_N2bHA-7" target="2zzuOroNykCwQC_N2bHA-140">
          <mxGeometry relative="1" as="geometry">
            <mxPoint x="670" y="410" as="sourcePoint" />
            <mxPoint x="830" y="410" as="targetPoint" />
          </mxGeometry>
        </mxCell>
        <mxCell id="2zzuOroNykCwQC_N2bHA-144" value="version_id" style="ellipse;whiteSpace=wrap;html=1;align=center;fontStyle=4;" vertex="1" parent="1">
          <mxGeometry x="780" y="450" width="100" height="40" as="geometry" />
        </mxCell>
        <mxCell id="2zzuOroNykCwQC_N2bHA-145" value="content_path" style="ellipse;whiteSpace=wrap;html=1;align=center;" vertex="1" parent="1">
          <mxGeometry x="710" y="405" width="100" height="40" as="geometry" />
        </mxCell>
        <mxCell id="2zzuOroNykCwQC_N2bHA-146" value="type" style="ellipse;whiteSpace=wrap;html=1;align=center;" vertex="1" parent="1">
          <mxGeometry x="870" y="710" width="100" height="40" as="geometry" />
        </mxCell>
        <mxCell id="2zzuOroNykCwQC_N2bHA-147" value="post_id" style="ellipse;whiteSpace=wrap;html=1;align=center;" vertex="1" parent="1">
          <mxGeometry x="980" y="630" width="100" height="40" as="geometry" />
        </mxCell>
        <mxCell id="2zzuOroNykCwQC_N2bHA-148" value="update_at" style="ellipse;whiteSpace=wrap;html=1;align=center;" vertex="1" parent="1">
          <mxGeometry x="890" y="480" width="100" height="40" as="geometry" />
        </mxCell>
        <mxCell id="2zzuOroNykCwQC_N2bHA-149" value="published_status" style="ellipse;whiteSpace=wrap;html=1;align=center;" vertex="1" parent="1">
          <mxGeometry x="980" y="575" width="100" height="40" as="geometry" />
        </mxCell>
        <mxCell id="2zzuOroNykCwQC_N2bHA-150" value="is_featured" style="ellipse;whiteSpace=wrap;html=1;align=center;" vertex="1" parent="1">
          <mxGeometry x="930" y="530" width="100" height="40" as="geometry" />
        </mxCell>
        <mxCell id="2zzuOroNykCwQC_N2bHA-151" value="metadata" style="ellipse;whiteSpace=wrap;html=1;align=center;" vertex="1" parent="1">
          <mxGeometry x="920" y="670" width="100" height="40" as="geometry" />
        </mxCell>
        <mxCell id="2zzuOroNykCwQC_N2bHA-152" value="" style="endArrow=none;html=1;rounded=0;entryX=0.5;entryY=1;entryDx=0;entryDy=0;exitX=1;exitY=0.5;exitDx=0;exitDy=0;" edge="1" parent="1" source="2zzuOroNykCwQC_N2bHA-10" target="2zzuOroNykCwQC_N2bHA-144">
          <mxGeometry relative="1" as="geometry">
            <mxPoint x="720" y="620" as="sourcePoint" />
            <mxPoint x="880" y="620" as="targetPoint" />
          </mxGeometry>
        </mxCell>
        <mxCell id="2zzuOroNykCwQC_N2bHA-153" value="" style="endArrow=none;html=1;rounded=0;exitX=0.5;exitY=0;exitDx=0;exitDy=0;entryX=0.467;entryY=0.968;entryDx=0;entryDy=0;entryPerimeter=0;" edge="1" parent="1" source="2zzuOroNykCwQC_N2bHA-10" target="2zzuOroNykCwQC_N2bHA-145">
          <mxGeometry relative="1" as="geometry">
            <mxPoint x="720" y="620" as="sourcePoint" />
            <mxPoint x="760" y="440" as="targetPoint" />
          </mxGeometry>
        </mxCell>
        <mxCell id="2zzuOroNykCwQC_N2bHA-154" value="" style="endArrow=none;html=1;rounded=0;exitX=1;exitY=0.5;exitDx=0;exitDy=0;" edge="1" parent="1" source="2zzuOroNykCwQC_N2bHA-10" target="2zzuOroNykCwQC_N2bHA-148">
          <mxGeometry relative="1" as="geometry">
            <mxPoint x="720" y="620" as="sourcePoint" />
            <mxPoint x="880" y="620" as="targetPoint" />
          </mxGeometry>
        </mxCell>
        <mxCell id="2zzuOroNykCwQC_N2bHA-155" value="" style="endArrow=none;html=1;rounded=0;entryX=0;entryY=0.5;entryDx=0;entryDy=0;" edge="1" parent="1" source="2zzuOroNykCwQC_N2bHA-10" target="2zzuOroNykCwQC_N2bHA-150">
          <mxGeometry relative="1" as="geometry">
            <mxPoint x="780" y="590" as="sourcePoint" />
            <mxPoint x="880" y="620" as="targetPoint" />
          </mxGeometry>
        </mxCell>
        <mxCell id="2zzuOroNykCwQC_N2bHA-156" value="" style="endArrow=none;html=1;rounded=0;entryX=0;entryY=0.5;entryDx=0;entryDy=0;" edge="1" parent="1" target="2zzuOroNykCwQC_N2bHA-149">
          <mxGeometry relative="1" as="geometry">
            <mxPoint x="780" y="590" as="sourcePoint" />
            <mxPoint x="880" y="620" as="targetPoint" />
          </mxGeometry>
        </mxCell>
        <mxCell id="2zzuOroNykCwQC_N2bHA-157" value="" style="endArrow=none;html=1;rounded=0;entryX=0.5;entryY=0;entryDx=0;entryDy=0;exitX=0.5;exitY=1;exitDx=0;exitDy=0;" edge="1" parent="1" source="2zzuOroNykCwQC_N2bHA-10" target="2zzuOroNykCwQC_N2bHA-147">
          <mxGeometry relative="1" as="geometry">
            <mxPoint x="730" y="640" as="sourcePoint" />
            <mxPoint x="890" y="640" as="targetPoint" />
          </mxGeometry>
        </mxCell>
        <mxCell id="2zzuOroNykCwQC_N2bHA-158" value="" style="endArrow=none;html=1;rounded=0;entryX=0.5;entryY=0;entryDx=0;entryDy=0;exitX=0.5;exitY=1;exitDx=0;exitDy=0;" edge="1" parent="1" source="2zzuOroNykCwQC_N2bHA-10" target="2zzuOroNykCwQC_N2bHA-151">
          <mxGeometry relative="1" as="geometry">
            <mxPoint x="730" y="610" as="sourcePoint" />
            <mxPoint x="890" y="640" as="targetPoint" />
          </mxGeometry>
        </mxCell>
        <mxCell id="2zzuOroNykCwQC_N2bHA-159" value="" style="endArrow=none;html=1;rounded=0;entryX=0.5;entryY=0;entryDx=0;entryDy=0;exitX=0.5;exitY=1;exitDx=0;exitDy=0;" edge="1" parent="1" source="2zzuOroNykCwQC_N2bHA-10" target="2zzuOroNykCwQC_N2bHA-146">
          <mxGeometry relative="1" as="geometry">
            <mxPoint x="730" y="640" as="sourcePoint" />
            <mxPoint x="890" y="640" as="targetPoint" />
          </mxGeometry>
        </mxCell>
        <mxCell id="2zzuOroNykCwQC_N2bHA-160" value="slug_id" style="ellipse;whiteSpace=wrap;html=1;align=center;fontStyle=4;" vertex="1" parent="1">
          <mxGeometry x="760" y="-20" width="100" height="40" as="geometry" />
        </mxCell>
        <mxCell id="2zzuOroNykCwQC_N2bHA-161" value="slug" style="ellipse;whiteSpace=wrap;html=1;align=center;" vertex="1" parent="1">
          <mxGeometry x="860" y="10" width="100" height="40" as="geometry" />
        </mxCell>
        <mxCell id="2zzuOroNykCwQC_N2bHA-162" value="entity_id" style="ellipse;whiteSpace=wrap;html=1;align=center;" vertex="1" parent="1">
          <mxGeometry x="760" y="110" width="100" height="40" as="geometry" />
        </mxCell>
        <mxCell id="2zzuOroNykCwQC_N2bHA-163" value="type" style="ellipse;whiteSpace=wrap;html=1;align=center;" vertex="1" parent="1">
          <mxGeometry x="870" y="70" width="100" height="40" as="geometry" />
        </mxCell>
        <mxCell id="2zzuOroNykCwQC_N2bHA-164" value="" style="endArrow=none;html=1;rounded=0;entryX=0.5;entryY=1;entryDx=0;entryDy=0;exitX=1;exitY=0.5;exitDx=0;exitDy=0;" edge="1" parent="1" source="2zzuOroNykCwQC_N2bHA-16" target="2zzuOroNykCwQC_N2bHA-160">
          <mxGeometry relative="1" as="geometry">
            <mxPoint x="880" y="220" as="sourcePoint" />
            <mxPoint x="1040" y="220" as="targetPoint" />
          </mxGeometry>
        </mxCell>
        <mxCell id="2zzuOroNykCwQC_N2bHA-166" value="" style="endArrow=none;html=1;rounded=0;entryX=0;entryY=0.5;entryDx=0;entryDy=0;exitX=1;exitY=0.5;exitDx=0;exitDy=0;" edge="1" parent="1" source="2zzuOroNykCwQC_N2bHA-16" target="2zzuOroNykCwQC_N2bHA-161">
          <mxGeometry relative="1" as="geometry">
            <mxPoint x="880" y="220" as="sourcePoint" />
            <mxPoint x="1040" y="220" as="targetPoint" />
          </mxGeometry>
        </mxCell>
        <mxCell id="2zzuOroNykCwQC_N2bHA-167" value="" style="endArrow=none;html=1;rounded=0;exitX=1;exitY=0.5;exitDx=0;exitDy=0;entryX=0;entryY=0.5;entryDx=0;entryDy=0;" edge="1" parent="1" source="2zzuOroNykCwQC_N2bHA-16" target="2zzuOroNykCwQC_N2bHA-162">
          <mxGeometry relative="1" as="geometry">
            <mxPoint x="880" y="220" as="sourcePoint" />
            <mxPoint x="1040" y="220" as="targetPoint" />
          </mxGeometry>
        </mxCell>
        <mxCell id="2zzuOroNykCwQC_N2bHA-168" value="" style="endArrow=none;html=1;rounded=0;entryX=0;entryY=0.5;entryDx=0;entryDy=0;exitX=1;exitY=0.5;exitDx=0;exitDy=0;" edge="1" parent="1" source="2zzuOroNykCwQC_N2bHA-16" target="2zzuOroNykCwQC_N2bHA-163">
          <mxGeometry relative="1" as="geometry">
            <mxPoint x="880" y="220" as="sourcePoint" />
            <mxPoint x="1040" y="220" as="targetPoint" />
          </mxGeometry>
        </mxCell>
        <mxCell id="2zzuOroNykCwQC_N2bHA-169" value="slug_id" style="ellipse;whiteSpace=wrap;html=1;align=center;" vertex="1" parent="1">
          <mxGeometry x="270" y="-100" width="100" height="40" as="geometry" />
        </mxCell>
        <mxCell id="2zzuOroNykCwQC_N2bHA-170" value="tag_id" style="ellipse;whiteSpace=wrap;html=1;align=center;fontStyle=4;" vertex="1" parent="1">
          <mxGeometry x="370" y="-140" width="100" height="40" as="geometry" />
        </mxCell>
        <mxCell id="2zzuOroNykCwQC_N2bHA-171" value="name" style="ellipse;whiteSpace=wrap;html=1;align=center;" vertex="1" parent="1">
          <mxGeometry x="475" y="-100" width="100" height="40" as="geometry" />
        </mxCell>
        <mxCell id="2zzuOroNykCwQC_N2bHA-172" value="" style="endArrow=none;html=1;rounded=0;exitX=0.5;exitY=1;exitDx=0;exitDy=0;entryX=0.5;entryY=0;entryDx=0;entryDy=0;" edge="1" parent="1" source="2zzuOroNykCwQC_N2bHA-169" target="2zzuOroNykCwQC_N2bHA-15">
          <mxGeometry relative="1" as="geometry">
            <mxPoint x="430" y="220" as="sourcePoint" />
            <mxPoint x="590" y="220" as="targetPoint" />
          </mxGeometry>
        </mxCell>
        <mxCell id="2zzuOroNykCwQC_N2bHA-173" value="" style="endArrow=none;html=1;rounded=0;entryX=0.5;entryY=1;entryDx=0;entryDy=0;exitX=0.5;exitY=0;exitDx=0;exitDy=0;" edge="1" parent="1" source="2zzuOroNykCwQC_N2bHA-15" target="2zzuOroNykCwQC_N2bHA-171">
          <mxGeometry relative="1" as="geometry">
            <mxPoint x="430" y="220" as="sourcePoint" />
            <mxPoint x="590" y="220" as="targetPoint" />
          </mxGeometry>
        </mxCell>
        <mxCell id="2zzuOroNykCwQC_N2bHA-174" value="" style="endArrow=none;html=1;rounded=0;entryX=0.5;entryY=1;entryDx=0;entryDy=0;exitX=0.5;exitY=0;exitDx=0;exitDy=0;" edge="1" parent="1" source="2zzuOroNykCwQC_N2bHA-15" target="2zzuOroNykCwQC_N2bHA-170">
          <mxGeometry relative="1" as="geometry">
            <mxPoint x="430" y="220" as="sourcePoint" />
            <mxPoint x="430" y="-90" as="targetPoint" />
          </mxGeometry>
        </mxCell>
        <mxCell id="2zzuOroNykCwQC_N2bHA-175" value="post_id" style="ellipse;whiteSpace=wrap;html=1;align=center;" vertex="1" parent="1">
          <mxGeometry x="180" y="140" width="100" height="40" as="geometry" />
        </mxCell>
        <mxCell id="2zzuOroNykCwQC_N2bHA-176" value="tag_id" style="ellipse;whiteSpace=wrap;html=1;align=center;" vertex="1" parent="1">
          <mxGeometry x="220" y="80" width="100" height="40" as="geometry" />
        </mxCell>
        <mxCell id="2zzuOroNykCwQC_N2bHA-178" value="" style="endArrow=none;html=1;rounded=0;entryX=0;entryY=0.5;entryDx=0;entryDy=0;exitX=1;exitY=0.5;exitDx=0;exitDy=0;" edge="1" parent="1" source="2zzuOroNykCwQC_N2bHA-176" target="2zzuOroNykCwQC_N2bHA-14">
          <mxGeometry relative="1" as="geometry">
            <mxPoint x="240" y="260" as="sourcePoint" />
            <mxPoint x="400" y="260" as="targetPoint" />
          </mxGeometry>
        </mxCell>
        <mxCell id="2zzuOroNykCwQC_N2bHA-179" value="" style="endArrow=none;html=1;rounded=0;entryX=0;entryY=0.5;entryDx=0;entryDy=0;exitX=1;exitY=0.5;exitDx=0;exitDy=0;" edge="1" parent="1" source="2zzuOroNykCwQC_N2bHA-175" target="2zzuOroNykCwQC_N2bHA-14">
          <mxGeometry relative="1" as="geometry">
            <mxPoint x="330" y="200" as="sourcePoint" />
            <mxPoint x="410" y="260" as="targetPoint" />
          </mxGeometry>
        </mxCell>
        <mxCell id="2zzuOroNykCwQC_N2bHA-180" value="" style="endArrow=none;html=1;rounded=0;entryX=0;entryY=0.5;entryDx=0;entryDy=0;" edge="1" parent="1" target="2zzuOroNykCwQC_N2bHA-10">
          <mxGeometry relative="1" as="geometry">
            <mxPoint x="780" y="590" as="sourcePoint" />
            <mxPoint x="1010" y="620" as="targetPoint" />
          </mxGeometry>
        </mxCell>
        <mxCell id="2zzuOroNykCwQC_N2bHA-10" value="contentversions" style="whiteSpace=wrap;html=1;align=center;" vertex="1" parent="1">
          <mxGeometry x="730" y="575" width="100" height="40" as="geometry" />
        </mxCell>
        <mxCell id="2zzuOroNykCwQC_N2bHA-181" value="follower_id" style="ellipse;whiteSpace=wrap;html=1;align=center;" vertex="1" parent="1">
          <mxGeometry x="-150" y="-70" width="100" height="50" as="geometry" />
        </mxCell>
        <mxCell id="2zzuOroNykCwQC_N2bHA-182" value="entity_id" style="ellipse;whiteSpace=wrap;html=1;align=center;" vertex="1" parent="1">
          <mxGeometry x="-90" y="-140" width="100" height="40" as="geometry" />
        </mxCell>
        <mxCell id="2zzuOroNykCwQC_N2bHA-183" value="created_at" style="ellipse;whiteSpace=wrap;html=1;align=center;" vertex="1" parent="1">
          <mxGeometry x="120" y="-70" width="100" height="40" as="geometry" />
        </mxCell>
        <mxCell id="2zzuOroNykCwQC_N2bHA-184" value="type" style="ellipse;whiteSpace=wrap;html=1;align=center;" vertex="1" parent="1">
          <mxGeometry x="50" y="-140" width="100" height="40" as="geometry" />
        </mxCell>
        <mxCell id="2zzuOroNykCwQC_N2bHA-185" value="" style="endArrow=none;html=1;rounded=0;exitX=0.5;exitY=1;exitDx=0;exitDy=0;entryX=0.5;entryY=0;entryDx=0;entryDy=0;" edge="1" parent="1" source="2zzuOroNykCwQC_N2bHA-181" target="2zzuOroNykCwQC_N2bHA-12">
          <mxGeometry relative="1" as="geometry">
            <mxPoint x="190" as="sourcePoint" />
            <mxPoint x="350" as="targetPoint" />
          </mxGeometry>
        </mxCell>
        <mxCell id="2zzuOroNykCwQC_N2bHA-186" value="" style="endArrow=none;html=1;rounded=0;entryX=0;entryY=0.5;entryDx=0;entryDy=0;exitX=0.5;exitY=0;exitDx=0;exitDy=0;" edge="1" parent="1" source="2zzuOroNykCwQC_N2bHA-12" target="2zzuOroNykCwQC_N2bHA-183">
          <mxGeometry relative="1" as="geometry">
            <mxPoint x="190" as="sourcePoint" />
            <mxPoint x="350" as="targetPoint" />
          </mxGeometry>
        </mxCell>
        <mxCell id="2zzuOroNykCwQC_N2bHA-187" value="" style="endArrow=none;html=1;rounded=0;entryX=0.5;entryY=1;entryDx=0;entryDy=0;exitX=0.5;exitY=0;exitDx=0;exitDy=0;" edge="1" parent="1" source="2zzuOroNykCwQC_N2bHA-12" target="2zzuOroNykCwQC_N2bHA-184">
          <mxGeometry relative="1" as="geometry">
            <mxPoint x="190" as="sourcePoint" />
            <mxPoint x="350" as="targetPoint" />
          </mxGeometry>
        </mxCell>
        <mxCell id="2zzuOroNykCwQC_N2bHA-188" value="" style="endArrow=none;html=1;rounded=0;entryX=0.5;entryY=1;entryDx=0;entryDy=0;exitX=0.5;exitY=0;exitDx=0;exitDy=0;" edge="1" parent="1" source="2zzuOroNykCwQC_N2bHA-12" target="2zzuOroNykCwQC_N2bHA-182">
          <mxGeometry relative="1" as="geometry">
            <mxPoint x="190" as="sourcePoint" />
            <mxPoint x="350" as="targetPoint" />
          </mxGeometry>
        </mxCell>
        <mxCell id="2zzuOroNykCwQC_N2bHA-189" value="name" style="ellipse;whiteSpace=wrap;html=1;align=center;" vertex="1" parent="1">
          <mxGeometry x="-170" y="190" width="100" height="40" as="geometry" />
        </mxCell>
        <mxCell id="2zzuOroNykCwQC_N2bHA-190" value="user_id" style="ellipse;whiteSpace=wrap;html=1;align=center;fontStyle=4;" vertex="1" parent="1">
          <mxGeometry x="-230" y="245" width="100" height="40" as="geometry" />
        </mxCell>
        <mxCell id="2zzuOroNykCwQC_N2bHA-191" value="memberid" style="ellipse;whiteSpace=wrap;html=1;align=center;" vertex="1" parent="1">
          <mxGeometry x="-130" y="440" width="100" height="40" as="geometry" />
        </mxCell>
        <mxCell id="2zzuOroNykCwQC_N2bHA-192" value="bio" style="ellipse;whiteSpace=wrap;html=1;align=center;" vertex="1" parent="1">
          <mxGeometry x="-200" y="400" width="100" height="40" as="geometry" />
        </mxCell>
        <mxCell id="2zzuOroNykCwQC_N2bHA-193" value="password" style="ellipse;whiteSpace=wrap;html=1;align=center;" vertex="1" parent="1">
          <mxGeometry x="-250" y="355" width="100" height="40" as="geometry" />
        </mxCell>
        <mxCell id="2zzuOroNykCwQC_N2bHA-194" value="email" style="ellipse;whiteSpace=wrap;html=1;align=center;" vertex="1" parent="1">
          <mxGeometry x="-80" y="160" width="100" height="40" as="geometry" />
        </mxCell>
        <mxCell id="2zzuOroNykCwQC_N2bHA-195" style="edgeStyle=orthogonalEdgeStyle;rounded=0;orthogonalLoop=1;jettySize=auto;html=1;exitX=0.5;exitY=1;exitDx=0;exitDy=0;" edge="1" parent="1" source="2zzuOroNykCwQC_N2bHA-191" target="2zzuOroNykCwQC_N2bHA-191">
          <mxGeometry relative="1" as="geometry" />
        </mxCell>
        <mxCell id="2zzuOroNykCwQC_N2bHA-197" value="" style="endArrow=none;html=1;rounded=0;entryX=0;entryY=0.75;entryDx=0;entryDy=0;exitX=0.5;exitY=0;exitDx=0;exitDy=0;" edge="1" parent="1" source="2zzuOroNykCwQC_N2bHA-191" target="2zzuOroNykCwQC_N2bHA-6">
          <mxGeometry relative="1" as="geometry">
            <mxPoint x="-80" y="450" as="sourcePoint" />
            <mxPoint x="80" y="450" as="targetPoint" />
          </mxGeometry>
        </mxCell>
        <mxCell id="2zzuOroNykCwQC_N2bHA-198" value="" style="endArrow=none;html=1;rounded=0;exitX=0.5;exitY=0;exitDx=0;exitDy=0;entryX=0;entryY=0.75;entryDx=0;entryDy=0;" edge="1" parent="1" source="2zzuOroNykCwQC_N2bHA-192" target="2zzuOroNykCwQC_N2bHA-6">
          <mxGeometry relative="1" as="geometry">
            <mxPoint x="-80" y="440" as="sourcePoint" />
            <mxPoint x="80" y="440" as="targetPoint" />
          </mxGeometry>
        </mxCell>
        <mxCell id="2zzuOroNykCwQC_N2bHA-199" value="" style="endArrow=none;html=1;rounded=0;exitX=1;exitY=0.5;exitDx=0;exitDy=0;entryX=0;entryY=0.75;entryDx=0;entryDy=0;" edge="1" parent="1" source="2zzuOroNykCwQC_N2bHA-193" target="2zzuOroNykCwQC_N2bHA-6">
          <mxGeometry relative="1" as="geometry">
            <mxPoint x="-140" y="410" as="sourcePoint" />
            <mxPoint y="340" as="targetPoint" />
          </mxGeometry>
        </mxCell>
        <mxCell id="2zzuOroNykCwQC_N2bHA-200" value="" style="endArrow=none;html=1;rounded=0;exitX=0;exitY=0.25;exitDx=0;exitDy=0;entryX=0.989;entryY=0.679;entryDx=0;entryDy=0;entryPerimeter=0;" edge="1" parent="1" source="2zzuOroNykCwQC_N2bHA-6" target="2zzuOroNykCwQC_N2bHA-190">
          <mxGeometry relative="1" as="geometry">
            <mxPoint x="-130" y="420" as="sourcePoint" />
            <mxPoint x="10" y="350" as="targetPoint" />
          </mxGeometry>
        </mxCell>
        <mxCell id="2zzuOroNykCwQC_N2bHA-201" value="" style="endArrow=none;html=1;rounded=0;exitX=0;exitY=0.25;exitDx=0;exitDy=0;entryX=0.5;entryY=1;entryDx=0;entryDy=0;" edge="1" parent="1" source="2zzuOroNykCwQC_N2bHA-6" target="2zzuOroNykCwQC_N2bHA-194">
          <mxGeometry relative="1" as="geometry">
            <mxPoint x="-120" y="430" as="sourcePoint" />
            <mxPoint x="20" y="360" as="targetPoint" />
          </mxGeometry>
        </mxCell>
        <mxCell id="2zzuOroNykCwQC_N2bHA-202" value="" style="endArrow=none;html=1;rounded=0;exitX=0;exitY=0.25;exitDx=0;exitDy=0;entryX=0.5;entryY=1;entryDx=0;entryDy=0;" edge="1" parent="1" source="2zzuOroNykCwQC_N2bHA-6" target="2zzuOroNykCwQC_N2bHA-189">
          <mxGeometry relative="1" as="geometry">
            <mxPoint x="-110" y="440" as="sourcePoint" />
            <mxPoint x="30" y="370" as="targetPoint" />
          </mxGeometry>
        </mxCell>
        <mxCell id="2zzuOroNykCwQC_N2bHA-204" value="user_id" style="ellipse;whiteSpace=wrap;html=1;align=center;" vertex="1" parent="1">
          <mxGeometry x="-360" y="190" width="100" height="40" as="geometry" />
        </mxCell>
        <mxCell id="2zzuOroNykCwQC_N2bHA-205" value="role_id" style="ellipse;whiteSpace=wrap;html=1;align=center;" vertex="1" parent="1">
          <mxGeometry x="-500" y="190" width="100" height="40" as="geometry" />
        </mxCell>
        <mxCell id="2zzuOroNykCwQC_N2bHA-207" value="" style="endArrow=none;html=1;rounded=0;entryX=0.5;entryY=1;entryDx=0;entryDy=0;exitX=0.5;exitY=0;exitDx=0;exitDy=0;" edge="1" parent="1" source="2zzuOroNykCwQC_N2bHA-11" target="2zzuOroNykCwQC_N2bHA-204">
          <mxGeometry relative="1" as="geometry">
            <mxPoint x="-240" y="440" as="sourcePoint" />
            <mxPoint x="-80" y="440" as="targetPoint" />
          </mxGeometry>
        </mxCell>
        <mxCell id="2zzuOroNykCwQC_N2bHA-208" value="" style="endArrow=none;html=1;rounded=0;entryX=0.5;entryY=1;entryDx=0;entryDy=0;" edge="1" parent="1" target="2zzuOroNykCwQC_N2bHA-205">
          <mxGeometry relative="1" as="geometry">
            <mxPoint x="-370" y="300" as="sourcePoint" />
            <mxPoint x="-80" y="440" as="targetPoint" />
          </mxGeometry>
        </mxCell>
        <mxCell id="2zzuOroNykCwQC_N2bHA-209" value="role_id" style="ellipse;whiteSpace=wrap;html=1;align=center;fontStyle=4;" vertex="1" parent="1">
          <mxGeometry x="-550" y="420" width="100" height="40" as="geometry" />
        </mxCell>
        <mxCell id="2zzuOroNykCwQC_N2bHA-210" value="name" style="ellipse;whiteSpace=wrap;html=1;align=center;" vertex="1" parent="1">
          <mxGeometry x="-580" y="480" width="100" height="40" as="geometry" />
        </mxCell>
        <mxCell id="2zzuOroNykCwQC_N2bHA-211" value="description" style="ellipse;whiteSpace=wrap;html=1;align=center;" vertex="1" parent="1">
          <mxGeometry x="-560" y="550" width="100" height="40" as="geometry" />
        </mxCell>
        <mxCell id="2zzuOroNykCwQC_N2bHA-212" value="" style="endArrow=none;html=1;rounded=0;entryX=0;entryY=0.5;entryDx=0;entryDy=0;exitX=0.5;exitY=1;exitDx=0;exitDy=0;" edge="1" parent="1" source="2zzuOroNykCwQC_N2bHA-209" target="2zzuOroNykCwQC_N2bHA-9">
          <mxGeometry relative="1" as="geometry">
            <mxPoint x="-280" y="440" as="sourcePoint" />
            <mxPoint x="-120" y="440" as="targetPoint" />
          </mxGeometry>
        </mxCell>
        <mxCell id="2zzuOroNykCwQC_N2bHA-213" value="" style="endArrow=none;html=1;rounded=0;exitX=1;exitY=0.5;exitDx=0;exitDy=0;" edge="1" parent="1" source="2zzuOroNykCwQC_N2bHA-210">
          <mxGeometry relative="1" as="geometry">
            <mxPoint x="-280" y="440" as="sourcePoint" />
            <mxPoint x="-420" y="520" as="targetPoint" />
          </mxGeometry>
        </mxCell>
        <mxCell id="2zzuOroNykCwQC_N2bHA-214" value="" style="endArrow=none;html=1;rounded=0;entryX=1;entryY=0.5;entryDx=0;entryDy=0;exitX=0;exitY=0.5;exitDx=0;exitDy=0;" edge="1" parent="1" source="2zzuOroNykCwQC_N2bHA-9" target="2zzuOroNykCwQC_N2bHA-211">
          <mxGeometry relative="1" as="geometry">
            <mxPoint x="-280" y="440" as="sourcePoint" />
            <mxPoint x="-120" y="440" as="targetPoint" />
          </mxGeometry>
        </mxCell>
        <mxCell id="2zzuOroNykCwQC_N2bHA-215" value="permmission_id" style="ellipse;whiteSpace=wrap;html=1;align=center;" vertex="1" parent="1">
          <mxGeometry x="-360" y="780" width="100" height="40" as="geometry" />
        </mxCell>
        <mxCell id="2zzuOroNykCwQC_N2bHA-216" value="roll_id" style="ellipse;whiteSpace=wrap;html=1;align=center;" vertex="1" parent="1">
          <mxGeometry x="-500" y="780" width="100" height="40" as="geometry" />
        </mxCell>
        <mxCell id="2zzuOroNykCwQC_N2bHA-217" value="" style="endArrow=none;html=1;rounded=0;entryX=0.5;entryY=0;entryDx=0;entryDy=0;exitX=0.5;exitY=1;exitDx=0;exitDy=0;" edge="1" parent="1" source="2zzuOroNykCwQC_N2bHA-8" target="2zzuOroNykCwQC_N2bHA-216">
          <mxGeometry relative="1" as="geometry">
            <mxPoint x="-220" y="690" as="sourcePoint" />
            <mxPoint x="-60" y="690" as="targetPoint" />
          </mxGeometry>
        </mxCell>
        <mxCell id="2zzuOroNykCwQC_N2bHA-218" value="" style="endArrow=none;html=1;rounded=0;entryX=0.5;entryY=0;entryDx=0;entryDy=0;exitX=0.5;exitY=1;exitDx=0;exitDy=0;" edge="1" parent="1" source="2zzuOroNykCwQC_N2bHA-8" target="2zzuOroNykCwQC_N2bHA-215">
          <mxGeometry relative="1" as="geometry">
            <mxPoint x="-220" y="690" as="sourcePoint" />
            <mxPoint x="-60" y="690" as="targetPoint" />
          </mxGeometry>
        </mxCell>
        <mxCell id="2zzuOroNykCwQC_N2bHA-219" value="permission_id" style="ellipse;whiteSpace=wrap;html=1;align=center;fontStyle=4;" vertex="1" parent="1">
          <mxGeometry x="-140" y="620" width="100" height="40" as="geometry" />
        </mxCell>
        <mxCell id="2zzuOroNykCwQC_N2bHA-220" value="name" style="ellipse;whiteSpace=wrap;html=1;align=center;" vertex="1" parent="1">
          <mxGeometry x="-200" y="770" width="100" height="40" as="geometry" />
        </mxCell>
        <mxCell id="2zzuOroNykCwQC_N2bHA-221" value="description" style="ellipse;whiteSpace=wrap;html=1;align=center;" vertex="1" parent="1">
          <mxGeometry x="-80" y="770" width="100" height="40" as="geometry" />
        </mxCell>
        <mxCell id="2zzuOroNykCwQC_N2bHA-222" value="" style="endArrow=none;html=1;rounded=0;entryX=0.5;entryY=1;entryDx=0;entryDy=0;" edge="1" parent="1" source="2zzuOroNykCwQC_N2bHA-220" target="2zzuOroNykCwQC_N2bHA-2">
          <mxGeometry relative="1" as="geometry">
            <mxPoint x="-160" y="820" as="sourcePoint" />
            <mxPoint y="820" as="targetPoint" />
          </mxGeometry>
        </mxCell>
        <mxCell id="2zzuOroNykCwQC_N2bHA-223" value="" style="endArrow=none;html=1;rounded=0;entryX=0;entryY=0;entryDx=0;entryDy=0;" edge="1" parent="1" target="2zzuOroNykCwQC_N2bHA-221">
          <mxGeometry relative="1" as="geometry">
            <mxPoint x="-90" y="740" as="sourcePoint" />
            <mxPoint x="-20" y="860" as="targetPoint" />
          </mxGeometry>
        </mxCell>
        <mxCell id="2zzuOroNykCwQC_N2bHA-224" value="" style="endArrow=none;html=1;rounded=0;exitX=0.5;exitY=1;exitDx=0;exitDy=0;entryX=0.5;entryY=0;entryDx=0;entryDy=0;" edge="1" parent="1" source="2zzuOroNykCwQC_N2bHA-219" target="2zzuOroNykCwQC_N2bHA-2">
          <mxGeometry relative="1" as="geometry">
            <mxPoint x="-180" y="860" as="sourcePoint" />
            <mxPoint x="-20" y="860" as="targetPoint" />
          </mxGeometry>
        </mxCell>
        <mxCell id="2zzuOroNykCwQC_N2bHA-226" value="" style="endArrow=none;html=1;rounded=0;exitX=0.5;exitY=1;exitDx=0;exitDy=0;entryX=0.5;entryY=0;entryDx=0;entryDy=0;" edge="1" parent="1" source="2zzuOroNykCwQC_N2bHA-6" target="2zzuOroNykCwQC_N2bHA-24">
          <mxGeometry relative="1" as="geometry">
            <mxPoint x="40" y="340" as="sourcePoint" />
            <mxPoint x="40" y="820" as="targetPoint" />
          </mxGeometry>
        </mxCell>
        <mxCell id="2zzuOroNykCwQC_N2bHA-24" value="arePartOF" style="shape=rhombus;double=1;perimeter=rhombusPerimeter;whiteSpace=wrap;html=1;align=center;" vertex="1" parent="1">
          <mxGeometry x="-20" y="500" width="120" height="60" as="geometry" />
        </mxCell>
        <mxCell id="2zzuOroNykCwQC_N2bHA-227" value="member_id" style="ellipse;whiteSpace=wrap;html=1;align=center;fontStyle=4;" vertex="1" parent="1">
          <mxGeometry x="-60" y="980" width="100" height="40" as="geometry" />
        </mxCell>
        <mxCell id="2zzuOroNykCwQC_N2bHA-228" value="name" style="ellipse;whiteSpace=wrap;html=1;align=center;" vertex="1" parent="1">
          <mxGeometry x="70" y="980" width="100" height="40" as="geometry" />
        </mxCell>
        <mxCell id="2zzuOroNykCwQC_N2bHA-229" value="email" style="ellipse;whiteSpace=wrap;html=1;align=center;" vertex="1" parent="1">
          <mxGeometry x="-140" y="910" width="100" height="40" as="geometry" />
        </mxCell>
        <mxCell id="2zzuOroNykCwQC_N2bHA-230" value="password" style="ellipse;whiteSpace=wrap;html=1;align=center;" vertex="1" parent="1">
          <mxGeometry x="160" y="910" width="100" height="40" as="geometry" />
        </mxCell>
        <mxCell id="2zzuOroNykCwQC_N2bHA-232" value="" style="endArrow=none;html=1;rounded=0;exitX=0.5;exitY=1;exitDx=0;exitDy=0;entryX=0.5;entryY=0;entryDx=0;entryDy=0;" edge="1" parent="1" source="2zzuOroNykCwQC_N2bHA-3" target="2zzuOroNykCwQC_N2bHA-230">
          <mxGeometry relative="1" as="geometry">
            <mxPoint x="220" y="1020" as="sourcePoint" />
            <mxPoint x="380" y="1020" as="targetPoint" />
          </mxGeometry>
        </mxCell>
        <mxCell id="2zzuOroNykCwQC_N2bHA-233" value="" style="endArrow=none;html=1;rounded=0;entryX=0.5;entryY=1;entryDx=0;entryDy=0;exitX=0.5;exitY=0;exitDx=0;exitDy=0;" edge="1" parent="1" source="2zzuOroNykCwQC_N2bHA-228" target="2zzuOroNykCwQC_N2bHA-3">
          <mxGeometry relative="1" as="geometry">
            <mxPoint x="220" y="1020" as="sourcePoint" />
            <mxPoint x="380" y="1020" as="targetPoint" />
          </mxGeometry>
        </mxCell>
        <mxCell id="2zzuOroNykCwQC_N2bHA-234" value="" style="endArrow=none;html=1;rounded=0;exitX=0.5;exitY=0;exitDx=0;exitDy=0;" edge="1" parent="1" source="2zzuOroNykCwQC_N2bHA-227">
          <mxGeometry relative="1" as="geometry">
            <mxPoint x="220" y="1020" as="sourcePoint" />
            <mxPoint x="40" y="860" as="targetPoint" />
          </mxGeometry>
        </mxCell>
        <mxCell id="2zzuOroNykCwQC_N2bHA-235" value="" style="endArrow=none;html=1;rounded=0;exitX=0.5;exitY=0;exitDx=0;exitDy=0;" edge="1" parent="1" source="2zzuOroNykCwQC_N2bHA-229">
          <mxGeometry relative="1" as="geometry">
            <mxPoint x="220" y="1020" as="sourcePoint" />
            <mxPoint x="40" y="860" as="targetPoint" />
          </mxGeometry>
        </mxCell>
        <mxCell id="2zzuOroNykCwQC_N2bHA-236" value="memeberid" style="ellipse;whiteSpace=wrap;html=1;align=center;" vertex="1" parent="1">
          <mxGeometry x="310" y="900" width="100" height="40" as="geometry" />
        </mxCell>
        <mxCell id="2zzuOroNykCwQC_N2bHA-237" value="post_version" style="ellipse;whiteSpace=wrap;html=1;align=center;" vertex="1" parent="1">
          <mxGeometry x="420" y="920" width="100" height="40" as="geometry" />
        </mxCell>
        <mxCell id="2zzuOroNykCwQC_N2bHA-238" value="post_id" style="ellipse;whiteSpace=wrap;html=1;align=center;" vertex="1" parent="1">
          <mxGeometry x="510" y="880" width="100" height="40" as="geometry" />
        </mxCell>
        <mxCell id="2zzuOroNykCwQC_N2bHA-239" value="" style="endArrow=none;html=1;rounded=0;entryX=0.5;entryY=0;entryDx=0;entryDy=0;exitX=0.5;exitY=1;exitDx=0;exitDy=0;" edge="1" parent="1" source="2zzuOroNykCwQC_N2bHA-13" target="2zzuOroNykCwQC_N2bHA-236">
          <mxGeometry relative="1" as="geometry">
            <mxPoint x="420" y="690" as="sourcePoint" />
            <mxPoint x="550" y="650" as="targetPoint" />
          </mxGeometry>
        </mxCell>
        <mxCell id="2zzuOroNykCwQC_N2bHA-240" value="" style="endArrow=none;html=1;rounded=0;exitX=0.5;exitY=1;exitDx=0;exitDy=0;" edge="1" parent="1" source="2zzuOroNykCwQC_N2bHA-13" target="2zzuOroNykCwQC_N2bHA-237">
          <mxGeometry relative="1" as="geometry">
            <mxPoint x="390" y="660" as="sourcePoint" />
            <mxPoint x="550" y="660" as="targetPoint" />
          </mxGeometry>
        </mxCell>
        <mxCell id="2zzuOroNykCwQC_N2bHA-241" value="" style="endArrow=none;html=1;rounded=0;entryX=0;entryY=0.5;entryDx=0;entryDy=0;exitX=0.5;exitY=1;exitDx=0;exitDy=0;" edge="1" parent="1" source="2zzuOroNykCwQC_N2bHA-13" target="2zzuOroNykCwQC_N2bHA-238">
          <mxGeometry relative="1" as="geometry">
            <mxPoint x="390" y="660" as="sourcePoint" />
            <mxPoint x="550" y="660" as="targetPoint" />
          </mxGeometry>
        </mxCell>
        <mxCell id="2zzuOroNykCwQC_N2bHA-244" value="post_id" style="ellipse;whiteSpace=wrap;html=1;align=center;fontStyle=4;" vertex="1" parent="1">
          <mxGeometry x="485" y="380" width="100" height="40" as="geometry" />
        </mxCell>
        <mxCell id="2zzuOroNykCwQC_N2bHA-245" value="title" style="ellipse;whiteSpace=wrap;html=1;align=center;" vertex="1" parent="1">
          <mxGeometry x="440" y="420" width="100" height="40" as="geometry" />
        </mxCell>
        <mxCell id="2zzuOroNykCwQC_N2bHA-246" value="slug_id" style="ellipse;whiteSpace=wrap;html=1;align=center;" vertex="1" parent="1">
          <mxGeometry x="170" y="370" width="100" height="40" as="geometry" />
        </mxCell>
        <mxCell id="2zzuOroNykCwQC_N2bHA-247" value="userid" style="ellipse;whiteSpace=wrap;html=1;align=center;" vertex="1" parent="1">
          <mxGeometry x="340" y="440" width="100" height="40" as="geometry" />
        </mxCell>
        <mxCell id="2zzuOroNykCwQC_N2bHA-248" value="published_date" style="ellipse;whiteSpace=wrap;html=1;align=center;" vertex="1" parent="1">
          <mxGeometry x="225" y="420" width="100" height="40" as="geometry" />
        </mxCell>
        <mxCell id="2zzuOroNykCwQC_N2bHA-249" value="version" style="ellipse;whiteSpace=wrap;html=1;align=center;" vertex="1" parent="1">
          <mxGeometry x="250" y="230" width="100" height="40" as="geometry" />
        </mxCell>
        <mxCell id="2zzuOroNykCwQC_N2bHA-252" value="" style="endArrow=none;html=1;rounded=0;exitX=0.5;exitY=1;exitDx=0;exitDy=0;entryX=0.5;entryY=0;entryDx=0;entryDy=0;" edge="1" parent="1" source="2zzuOroNykCwQC_N2bHA-5" target="2zzuOroNykCwQC_N2bHA-244">
          <mxGeometry relative="1" as="geometry">
            <mxPoint x="470" y="500" as="sourcePoint" />
            <mxPoint x="630" y="500" as="targetPoint" />
          </mxGeometry>
        </mxCell>
        <mxCell id="2zzuOroNykCwQC_N2bHA-253" value="" style="endArrow=none;html=1;rounded=0;exitX=0.5;exitY=0;exitDx=0;exitDy=0;" edge="1" parent="1" source="2zzuOroNykCwQC_N2bHA-245">
          <mxGeometry relative="1" as="geometry">
            <mxPoint x="470" y="500" as="sourcePoint" />
            <mxPoint x="430" y="340" as="targetPoint" />
          </mxGeometry>
        </mxCell>
        <mxCell id="2zzuOroNykCwQC_N2bHA-254" value="" style="endArrow=none;html=1;rounded=0;entryX=0.5;entryY=1;entryDx=0;entryDy=0;exitX=0.5;exitY=0;exitDx=0;exitDy=0;" edge="1" parent="1" source="2zzuOroNykCwQC_N2bHA-247" target="2zzuOroNykCwQC_N2bHA-5">
          <mxGeometry relative="1" as="geometry">
            <mxPoint x="470" y="500" as="sourcePoint" />
            <mxPoint x="630" y="500" as="targetPoint" />
          </mxGeometry>
        </mxCell>
        <mxCell id="2zzuOroNykCwQC_N2bHA-255" value="" style="endArrow=none;html=1;rounded=0;entryX=0.5;entryY=1;entryDx=0;entryDy=0;exitX=0.5;exitY=0;exitDx=0;exitDy=0;" edge="1" parent="1" source="2zzuOroNykCwQC_N2bHA-248" target="2zzuOroNykCwQC_N2bHA-5">
          <mxGeometry relative="1" as="geometry">
            <mxPoint x="470" y="500" as="sourcePoint" />
            <mxPoint x="630" y="500" as="targetPoint" />
          </mxGeometry>
        </mxCell>
        <mxCell id="2zzuOroNykCwQC_N2bHA-256" value="" style="endArrow=none;html=1;rounded=0;entryX=0;entryY=0.5;entryDx=0;entryDy=0;exitX=1;exitY=0;exitDx=0;exitDy=0;" edge="1" parent="1" source="2zzuOroNykCwQC_N2bHA-246" target="2zzuOroNykCwQC_N2bHA-5">
          <mxGeometry relative="1" as="geometry">
            <mxPoint x="470" y="500" as="sourcePoint" />
            <mxPoint x="630" y="500" as="targetPoint" />
          </mxGeometry>
        </mxCell>
        <mxCell id="2zzuOroNykCwQC_N2bHA-257" value="" style="endArrow=none;html=1;rounded=0;entryX=0.5;entryY=1;entryDx=0;entryDy=0;exitX=0;exitY=0.5;exitDx=0;exitDy=0;" edge="1" parent="1" source="2zzuOroNykCwQC_N2bHA-5" target="2zzuOroNykCwQC_N2bHA-249">
          <mxGeometry relative="1" as="geometry">
            <mxPoint x="470" y="500" as="sourcePoint" />
            <mxPoint x="630" y="500" as="targetPoint" />
          </mxGeometry>
        </mxCell>
        <mxCell id="2zzuOroNykCwQC_N2bHA-259" value="comment_id" style="ellipse;whiteSpace=wrap;html=1;align=center;fontStyle=4;" vertex="1" parent="1">
          <mxGeometry x="340" y="700" width="100" height="40" as="geometry" />
        </mxCell>
        <mxCell id="2zzuOroNykCwQC_N2bHA-260" value="post_id" style="ellipse;whiteSpace=wrap;html=1;align=center;" vertex="1" parent="1">
          <mxGeometry x="240" y="720" width="100" height="40" as="geometry" />
        </mxCell>
        <mxCell id="2zzuOroNykCwQC_N2bHA-261" value="memberid" style="ellipse;whiteSpace=wrap;html=1;align=center;" vertex="1" parent="1">
          <mxGeometry x="350" y="630" width="100" height="40" as="geometry" />
        </mxCell>
        <mxCell id="2zzuOroNykCwQC_N2bHA-262" value="created_at" style="ellipse;whiteSpace=wrap;html=1;align=center;" vertex="1" parent="1">
          <mxGeometry x="125" y="550" width="100" height="40" as="geometry" />
        </mxCell>
        <mxCell id="2zzuOroNykCwQC_N2bHA-263" value="parent_comment" style="ellipse;whiteSpace=wrap;html=1;align=center;" vertex="1" parent="1">
          <mxGeometry x="125" y="710" width="100" height="40" as="geometry" />
        </mxCell>
        <mxCell id="2zzuOroNykCwQC_N2bHA-264" value="text" style="ellipse;whiteSpace=wrap;html=1;align=center;" vertex="1" parent="1">
          <mxGeometry x="80" y="600" width="100" height="40" as="geometry" />
        </mxCell>
        <mxCell id="2zzuOroNykCwQC_N2bHA-265" value="" style="endArrow=none;html=1;rounded=0;exitX=0.5;exitY=1;exitDx=0;exitDy=0;entryX=0.5;entryY=0;entryDx=0;entryDy=0;" edge="1" parent="1" source="2zzuOroNykCwQC_N2bHA-4" target="2zzuOroNykCwQC_N2bHA-260">
          <mxGeometry relative="1" as="geometry">
            <mxPoint x="300" y="730" as="sourcePoint" />
            <mxPoint x="460" y="730" as="targetPoint" />
          </mxGeometry>
        </mxCell>
        <mxCell id="2zzuOroNykCwQC_N2bHA-266" value="" style="endArrow=none;html=1;rounded=0;entryX=0.5;entryY=0;entryDx=0;entryDy=0;exitX=0.5;exitY=1;exitDx=0;exitDy=0;" edge="1" parent="1" source="2zzuOroNykCwQC_N2bHA-4" target="2zzuOroNykCwQC_N2bHA-259">
          <mxGeometry relative="1" as="geometry">
            <mxPoint x="300" y="730" as="sourcePoint" />
            <mxPoint x="460" y="730" as="targetPoint" />
          </mxGeometry>
        </mxCell>
        <mxCell id="2zzuOroNykCwQC_N2bHA-267" value="" style="endArrow=none;html=1;rounded=0;entryX=0;entryY=0.5;entryDx=0;entryDy=0;exitX=1;exitY=0.5;exitDx=0;exitDy=0;" edge="1" parent="1" source="2zzuOroNykCwQC_N2bHA-4" target="2zzuOroNykCwQC_N2bHA-261">
          <mxGeometry relative="1" as="geometry">
            <mxPoint x="300" y="730" as="sourcePoint" />
            <mxPoint x="460" y="730" as="targetPoint" />
          </mxGeometry>
        </mxCell>
        <mxCell id="2zzuOroNykCwQC_N2bHA-268" value="" style="endArrow=none;html=1;rounded=0;exitX=0.5;exitY=0;exitDx=0;exitDy=0;entryX=0.5;entryY=1;entryDx=0;entryDy=0;" edge="1" parent="1" source="2zzuOroNykCwQC_N2bHA-263" target="2zzuOroNykCwQC_N2bHA-4">
          <mxGeometry relative="1" as="geometry">
            <mxPoint x="300" y="730" as="sourcePoint" />
            <mxPoint x="460" y="730" as="targetPoint" />
          </mxGeometry>
        </mxCell>
        <mxCell id="2zzuOroNykCwQC_N2bHA-269" value="" style="endArrow=none;html=1;rounded=0;exitX=1;exitY=1;exitDx=0;exitDy=0;entryX=0.5;entryY=0;entryDx=0;entryDy=0;" edge="1" parent="1" source="2zzuOroNykCwQC_N2bHA-262" target="2zzuOroNykCwQC_N2bHA-4">
          <mxGeometry relative="1" as="geometry">
            <mxPoint x="300" y="730" as="sourcePoint" />
            <mxPoint x="460" y="730" as="targetPoint" />
          </mxGeometry>
        </mxCell>
        <mxCell id="2zzuOroNykCwQC_N2bHA-270" value="" style="endArrow=none;html=1;rounded=0;exitX=1;exitY=0.5;exitDx=0;exitDy=0;entryX=0;entryY=0.5;entryDx=0;entryDy=0;" edge="1" parent="1" source="2zzuOroNykCwQC_N2bHA-264" target="2zzuOroNykCwQC_N2bHA-4">
          <mxGeometry relative="1" as="geometry">
            <mxPoint x="300" y="730" as="sourcePoint" />
            <mxPoint x="460" y="730" as="targetPoint" />
          </mxGeometry>
        </mxCell>
        <mxCell id="PdE4uuMJblQPtWxGmf5B-1" value="&lt;b&gt;&lt;font style=&quot;font-size: 24px;&quot;&gt;M&lt;/font&gt;&lt;/b&gt;" style="text;html=1;strokeColor=none;fillColor=none;align=center;verticalAlign=middle;whiteSpace=wrap;rounded=0;" vertex="1" parent="1">
          <mxGeometry x="-600" y="60" width="30" height="30" as="geometry" />
        </mxCell>
        <mxCell id="PdE4uuMJblQPtWxGmf5B-2" value="&lt;font style=&quot;font-size: 24px;&quot;&gt;&lt;b&gt;1&lt;/b&gt;&lt;/font&gt;" style="text;html=1;strokeColor=none;fillColor=none;align=center;verticalAlign=middle;whiteSpace=wrap;rounded=0;" vertex="1" parent="1">
          <mxGeometry x="-600" y="170" width="30" height="30" as="geometry" />
        </mxCell>
        <mxCell id="PdE4uuMJblQPtWxGmf5B-3" value="&lt;b&gt;&lt;font style=&quot;font-size: 24px;&quot;&gt;N&lt;/font&gt;&lt;/b&gt;" style="text;html=1;strokeColor=none;fillColor=none;align=center;verticalAlign=middle;whiteSpace=wrap;rounded=0;" vertex="1" parent="1">
          <mxGeometry x="40" y="170" width="30" height="30" as="geometry" />
        </mxCell>
        <mxCell id="PdE4uuMJblQPtWxGmf5B-4" value="&lt;b&gt;&lt;font style=&quot;font-size: 24px;&quot;&gt;M&lt;/font&gt;&lt;/b&gt;" style="text;html=1;strokeColor=none;fillColor=none;align=center;verticalAlign=middle;whiteSpace=wrap;rounded=0;" vertex="1" parent="1">
          <mxGeometry x="40" y="80" width="30" height="30" as="geometry" />
        </mxCell>
        <mxCell id="PdE4uuMJblQPtWxGmf5B-5" value="&lt;font style=&quot;font-size: 24px;&quot;&gt;&lt;b&gt;1&lt;/b&gt;&lt;/font&gt;" style="text;html=1;strokeColor=none;fillColor=none;align=center;verticalAlign=middle;whiteSpace=wrap;rounded=0;" vertex="1" parent="1">
          <mxGeometry x="40" y="560" width="30" height="30" as="geometry" />
        </mxCell>
        <mxCell id="PdE4uuMJblQPtWxGmf5B-6" value="&lt;font style=&quot;font-size: 24px;&quot;&gt;&lt;b&gt;1&lt;/b&gt;&lt;/font&gt;" style="text;html=1;strokeColor=none;fillColor=none;align=center;verticalAlign=middle;whiteSpace=wrap;rounded=0;" vertex="1" parent="1">
          <mxGeometry x="40" y="470" width="30" height="30" as="geometry" />
        </mxCell>
        <mxCell id="69zjgqNjPxq0al3YgfLl-1" value="&lt;b&gt;&lt;font style=&quot;font-size: 24px;&quot;&gt;M&lt;/font&gt;&lt;/b&gt;" style="text;html=1;strokeColor=none;fillColor=none;align=center;verticalAlign=middle;whiteSpace=wrap;rounded=0;" vertex="1" parent="1">
          <mxGeometry x="155" y="-10" width="30" height="30" as="geometry" />
        </mxCell>
        <mxCell id="69zjgqNjPxq0al3YgfLl-2" value="&lt;b&gt;&lt;font style=&quot;font-size: 24px;&quot;&gt;N&lt;/font&gt;&lt;/b&gt;" style="text;html=1;strokeColor=none;fillColor=none;align=center;verticalAlign=middle;whiteSpace=wrap;rounded=0;" vertex="1" parent="1">
          <mxGeometry x="300" y="-10" width="30" height="30" as="geometry" />
        </mxCell>
        <mxCell id="69zjgqNjPxq0al3YgfLl-3" value="&lt;font style=&quot;font-size: 24px;&quot;&gt;&lt;b&gt;1&lt;/b&gt;&lt;/font&gt;" style="text;html=1;strokeColor=none;fillColor=none;align=center;verticalAlign=middle;whiteSpace=wrap;rounded=0;" vertex="1" parent="1">
          <mxGeometry x="630" y="50" width="20" height="30" as="geometry" />
        </mxCell>
        <mxCell id="69zjgqNjPxq0al3YgfLl-4" value="&lt;b&gt;&lt;font style=&quot;font-size: 24px;&quot;&gt;M&lt;/font&gt;&lt;/b&gt;" style="text;html=1;strokeColor=none;fillColor=none;align=center;verticalAlign=middle;whiteSpace=wrap;rounded=0;" vertex="1" parent="1">
          <mxGeometry x="560" y="-10" width="30" height="30" as="geometry" />
        </mxCell>
        <mxCell id="69zjgqNjPxq0al3YgfLl-5" value="&lt;font style=&quot;font-size: 24px;&quot;&gt;&lt;b&gt;1&lt;/b&gt;&lt;/font&gt;" style="text;html=1;strokeColor=none;fillColor=none;align=center;verticalAlign=middle;whiteSpace=wrap;rounded=0;" vertex="1" parent="1">
          <mxGeometry x="630" y="150" width="20" height="30" as="geometry" />
        </mxCell>
        <mxCell id="69zjgqNjPxq0al3YgfLl-6" value="&lt;b&gt;&lt;font style=&quot;font-size: 24px;&quot;&gt;M&lt;/font&gt;&lt;/b&gt;" style="text;html=1;strokeColor=none;fillColor=none;align=center;verticalAlign=middle;whiteSpace=wrap;rounded=0;" vertex="1" parent="1">
          <mxGeometry x="600" y="225" width="30" height="30" as="geometry" />
        </mxCell>
        <mxCell id="69zjgqNjPxq0al3YgfLl-7" value="&lt;font style=&quot;font-size: 24px;&quot;&gt;&lt;b&gt;1&lt;/b&gt;&lt;/font&gt;" style="text;html=1;strokeColor=none;fillColor=none;align=center;verticalAlign=middle;whiteSpace=wrap;rounded=0;" vertex="1" parent="1">
          <mxGeometry x="525" y="290" width="20" height="30" as="geometry" />
        </mxCell>
        <mxCell id="69zjgqNjPxq0al3YgfLl-8" value="&lt;b&gt;&lt;font style=&quot;font-size: 24px;&quot;&gt;M&lt;/font&gt;&lt;/b&gt;" style="text;html=1;strokeColor=none;fillColor=none;align=center;verticalAlign=middle;whiteSpace=wrap;rounded=0;" vertex="1" parent="1">
          <mxGeometry x="660" y="290" width="30" height="30" as="geometry" />
        </mxCell>
        <mxCell id="69zjgqNjPxq0al3YgfLl-9" value="&lt;font style=&quot;font-size: 24px;&quot;&gt;&lt;b&gt;1&lt;/b&gt;&lt;/font&gt;" style="text;html=1;strokeColor=none;fillColor=none;align=center;verticalAlign=middle;whiteSpace=wrap;rounded=0;" vertex="1" parent="1">
          <mxGeometry x="860" y="290" width="20" height="30" as="geometry" />
        </mxCell>
        <mxCell id="69zjgqNjPxq0al3YgfLl-10" value="&lt;b&gt;&lt;font style=&quot;font-size: 24px;&quot;&gt;M&lt;/font&gt;&lt;/b&gt;" style="text;html=1;strokeColor=none;fillColor=none;align=center;verticalAlign=middle;whiteSpace=wrap;rounded=0;" vertex="1" parent="1">
          <mxGeometry x="990" y="290" width="30" height="30" as="geometry" />
        </mxCell>
        <mxCell id="69zjgqNjPxq0al3YgfLl-11" value="&lt;font style=&quot;font-size: 24px;&quot;&gt;&lt;b&gt;1&lt;/b&gt;&lt;/font&gt;" style="text;html=1;strokeColor=none;fillColor=none;align=center;verticalAlign=middle;whiteSpace=wrap;rounded=0;" vertex="1" parent="1">
          <mxGeometry x="170" y="285" width="30" height="30" as="geometry" />
        </mxCell>
        <mxCell id="69zjgqNjPxq0al3YgfLl-12" value="&lt;b&gt;&lt;font style=&quot;font-size: 24px;&quot;&gt;M&lt;/font&gt;&lt;/b&gt;" style="text;html=1;strokeColor=none;fillColor=none;align=center;verticalAlign=middle;whiteSpace=wrap;rounded=0;" vertex="1" parent="1">
          <mxGeometry x="280" y="290" width="30" height="30" as="geometry" />
        </mxCell>
        <mxCell id="69zjgqNjPxq0al3YgfLl-13" value="&lt;span style=&quot;font-size: 24px;&quot;&gt;&lt;b&gt;1&lt;/b&gt;&lt;/span&gt;" style="text;html=1;strokeColor=none;fillColor=none;align=center;verticalAlign=middle;whiteSpace=wrap;rounded=0;" vertex="1" parent="1">
          <mxGeometry x="90" y="725" width="20" height="30" as="geometry" />
        </mxCell>
        <mxCell id="69zjgqNjPxq0al3YgfLl-14" value="&lt;b&gt;&lt;font style=&quot;font-size: 24px;&quot;&gt;M&lt;/font&gt;&lt;/b&gt;" style="text;html=1;strokeColor=none;fillColor=none;align=center;verticalAlign=middle;whiteSpace=wrap;rounded=0;" vertex="1" parent="1">
          <mxGeometry x="125" y="650" width="30" height="30" as="geometry" />
        </mxCell>
        <mxCell id="69zjgqNjPxq0al3YgfLl-17" value="&lt;b&gt;&lt;font style=&quot;font-size: 24px;&quot;&gt;M&lt;/font&gt;&lt;/b&gt;" style="text;html=1;strokeColor=none;fillColor=none;align=center;verticalAlign=middle;whiteSpace=wrap;rounded=0;" vertex="1" parent="1">
          <mxGeometry x="180" y="810" width="30" height="30" as="geometry" />
        </mxCell>
        <mxCell id="69zjgqNjPxq0al3YgfLl-18" value="&lt;b&gt;&lt;font style=&quot;font-size: 24px;&quot;&gt;N&lt;/font&gt;&lt;/b&gt;" style="text;html=1;strokeColor=none;fillColor=none;align=center;verticalAlign=middle;whiteSpace=wrap;rounded=0;" vertex="1" parent="1">
          <mxGeometry x="325" y="810" width="30" height="30" as="geometry" />
        </mxCell>
        <mxCell id="69zjgqNjPxq0al3YgfLl-19" value="&lt;span style=&quot;font-size: 24px;&quot;&gt;&lt;b&gt;1&lt;/b&gt;&lt;/span&gt;" style="text;html=1;strokeColor=none;fillColor=none;align=center;verticalAlign=middle;whiteSpace=wrap;rounded=0;" vertex="1" parent="1">
          <mxGeometry x="-370" y="365" width="20" height="30" as="geometry" />
        </mxCell>
        <mxCell id="69zjgqNjPxq0al3YgfLl-20" value="&lt;span style=&quot;font-size: 24px;&quot;&gt;&lt;b&gt;1&lt;/b&gt;&lt;/span&gt;" style="text;html=1;strokeColor=none;fillColor=none;align=center;verticalAlign=middle;whiteSpace=wrap;rounded=0;" vertex="1" parent="1">
          <mxGeometry x="-370" y="445" width="20" height="30" as="geometry" />
        </mxCell>
        <mxCell id="69zjgqNjPxq0al3YgfLl-21" value="&lt;span style=&quot;font-size: 24px;&quot;&gt;&lt;b&gt;M&lt;/b&gt;&lt;/span&gt;" style="text;html=1;strokeColor=none;fillColor=none;align=center;verticalAlign=middle;whiteSpace=wrap;rounded=0;" vertex="1" parent="1">
          <mxGeometry x="-370" y="555" width="20" height="30" as="geometry" />
        </mxCell>
        <mxCell id="69zjgqNjPxq0al3YgfLl-22" value="&lt;span style=&quot;font-size: 24px;&quot;&gt;&lt;b&gt;N&lt;/b&gt;&lt;/span&gt;" style="text;html=1;strokeColor=none;fillColor=none;align=center;verticalAlign=middle;whiteSpace=wrap;rounded=0;" vertex="1" parent="1">
          <mxGeometry x="-370" y="650" width="20" height="30" as="geometry" />
        </mxCell>
        <mxCell id="69zjgqNjPxq0al3YgfLl-23" value="&lt;span style=&quot;font-size: 24px;&quot;&gt;&lt;b&gt;1&lt;/b&gt;&lt;/span&gt;" style="text;html=1;strokeColor=none;fillColor=none;align=center;verticalAlign=middle;whiteSpace=wrap;rounded=0;" vertex="1" parent="1">
          <mxGeometry x="-300" y="690" width="20" height="30" as="geometry" />
        </mxCell>
        <mxCell id="69zjgqNjPxq0al3YgfLl-24" value="&lt;span style=&quot;font-size: 24px;&quot;&gt;&lt;b&gt;1&lt;/b&gt;&lt;/span&gt;" style="text;html=1;strokeColor=none;fillColor=none;align=center;verticalAlign=middle;whiteSpace=wrap;rounded=0;" vertex="1" parent="1">
          <mxGeometry x="-170" y="690" width="20" height="30" as="geometry" />
        </mxCell>
        <mxCell id="69zjgqNjPxq0al3YgfLl-25" value="&lt;b&gt;&lt;font style=&quot;font-size: 24px;&quot;&gt;1&lt;/font&gt;&lt;/b&gt;" style="text;html=1;strokeColor=none;fillColor=none;align=center;verticalAlign=middle;whiteSpace=wrap;rounded=0;" vertex="1" parent="1">
          <mxGeometry x="710" y="800" width="30" height="30" as="geometry" />
        </mxCell>
        <mxCell id="69zjgqNjPxq0al3YgfLl-26" value="&lt;b&gt;&lt;font style=&quot;font-size: 24px;&quot;&gt;1&lt;/font&gt;&lt;/b&gt;" style="text;html=1;strokeColor=none;fillColor=none;align=center;verticalAlign=middle;whiteSpace=wrap;rounded=0;" vertex="1" parent="1">
          <mxGeometry x="790" y="775" width="30" height="30" as="geometry" />
        </mxCell>
        <mxCell id="69zjgqNjPxq0al3YgfLl-27" value="&lt;font style=&quot;font-size: 24px;&quot;&gt;&lt;b&gt;1&lt;/b&gt;&lt;/font&gt;" style="text;html=1;strokeColor=none;fillColor=none;align=center;verticalAlign=middle;whiteSpace=wrap;rounded=0;" vertex="1" parent="1">
          <mxGeometry x="650" y="440" width="20" height="30" as="geometry" />
        </mxCell>
        <mxCell id="69zjgqNjPxq0al3YgfLl-28" value="&lt;b&gt;&lt;font style=&quot;font-size: 24px;&quot;&gt;M&lt;/font&gt;&lt;/b&gt;" style="text;html=1;strokeColor=none;fillColor=none;align=center;verticalAlign=middle;whiteSpace=wrap;rounded=0;" vertex="1" parent="1">
          <mxGeometry x="710" y="505" width="30" height="30" as="geometry" />
        </mxCell>
        <mxCell id="yO4s0wZ_KHxFBeZVmtQ7-1" value="account" style="whiteSpace=wrap;html=1;align=center;" vertex="1" parent="1">
          <mxGeometry x="-380" y="30" width="100" height="40" as="geometry" />
        </mxCell>
        <mxCell id="yO4s0wZ_KHxFBeZVmtQ7-3" value="" style="edgeStyle=orthogonalEdgeStyle;rounded=0;orthogonalLoop=1;jettySize=auto;html=1;" edge="1" parent="1" source="yO4s0wZ_KHxFBeZVmtQ7-2" target="yO4s0wZ_KHxFBeZVmtQ7-1">
          <mxGeometry relative="1" as="geometry" />
        </mxCell>
        <mxCell id="yO4s0wZ_KHxFBeZVmtQ7-8" style="edgeStyle=orthogonalEdgeStyle;rounded=0;orthogonalLoop=1;jettySize=auto;html=1;exitX=1;exitY=0.5;exitDx=0;exitDy=0;entryX=0.5;entryY=0;entryDx=0;entryDy=0;" edge="1" parent="1" source="yO4s0wZ_KHxFBeZVmtQ7-2" target="yO4s0wZ_KHxFBeZVmtQ7-5">
          <mxGeometry relative="1" as="geometry" />
        </mxCell>
        <mxCell id="yO4s0wZ_KHxFBeZVmtQ7-2" value="user_id" style="ellipse;whiteSpace=wrap;html=1;align=center;" vertex="1" parent="1">
          <mxGeometry x="-220" y="30" width="100" height="40" as="geometry" />
        </mxCell>
        <mxCell id="yO4s0wZ_KHxFBeZVmtQ7-9" style="edgeStyle=orthogonalEdgeStyle;rounded=0;orthogonalLoop=1;jettySize=auto;html=1;exitX=0.5;exitY=1;exitDx=0;exitDy=0;entryX=0.75;entryY=0;entryDx=0;entryDy=0;" edge="1" parent="1" source="yO4s0wZ_KHxFBeZVmtQ7-5" target="2zzuOroNykCwQC_N2bHA-6">
          <mxGeometry relative="1" as="geometry" />
        </mxCell>
        <mxCell id="yO4s0wZ_KHxFBeZVmtQ7-5" value="areAssigned" style="shape=rhombus;perimeter=rhombusPerimeter;whiteSpace=wrap;html=1;align=center;" vertex="1" parent="1">
          <mxGeometry x="-130" y="80" width="120" height="60" as="geometry" />
        </mxCell>
        <mxCell id="yO4s0wZ_KHxFBeZVmtQ7-7" value="" style="endArrow=none;html=1;rounded=0;" edge="1" parent="1">
          <mxGeometry width="50" height="50" relative="1" as="geometry">
            <mxPoint x="20" y="300" as="sourcePoint" />
            <mxPoint x="70" y="250" as="targetPoint" />
          </mxGeometry>
        </mxCell>
        <mxCell id="yO4s0wZ_KHxFBeZVmtQ7-10" value="user_id" style="ellipse;whiteSpace=wrap;html=1;align=center;" vertex="1" parent="1">
          <mxGeometry x="70" y="225" width="100" height="40" as="geometry" />
        </mxCell>
        <mxCell id="yO4s0wZ_KHxFBeZVmtQ7-11" value="Sessions" style="whiteSpace=wrap;html=1;align=center;" vertex="1" parent="1">
          <mxGeometry x="-380" y="950" width="100" height="40" as="geometry" />
        </mxCell>
        <mxCell id="yO4s0wZ_KHxFBeZVmtQ7-12" value="user_id" style="ellipse;whiteSpace=wrap;html=1;align=center;fontStyle=4;" vertex="1" parent="1">
          <mxGeometry x="-370" y="880" width="100" height="40" as="geometry" />
        </mxCell>
        <mxCell id="yO4s0wZ_KHxFBeZVmtQ7-13" value="" style="endArrow=none;html=1;rounded=0;" edge="1" parent="1">
          <mxGeometry width="50" height="50" relative="1" as="geometry">
            <mxPoint x="-310" y="880" as="sourcePoint" />
            <mxPoint x="-225.88235294117658" y="867.0588235294117" as="targetPoint" />
          </mxGeometry>
        </mxCell>
        <mxCell id="yO4s0wZ_KHxFBeZVmtQ7-15" value="" style="endArrow=none;html=1;rounded=0;entryX=0.42;entryY=1.075;entryDx=0;entryDy=0;entryPerimeter=0;exitX=0.52;exitY=0;exitDx=0;exitDy=0;exitPerimeter=0;" edge="1" parent="1" source="yO4s0wZ_KHxFBeZVmtQ7-11" target="yO4s0wZ_KHxFBeZVmtQ7-12">
          <mxGeometry width="50" height="50" relative="1" as="geometry">
            <mxPoint x="-335" y="950" as="sourcePoint" />
            <mxPoint x="-285" y="900" as="targetPoint" />
          </mxGeometry>
        </mxCell>
        <mxCell id="yO4s0wZ_KHxFBeZVmtQ7-16" value="worksWith" style="shape=rhombus;double=1;perimeter=rhombusPerimeter;whiteSpace=wrap;html=1;align=center;" vertex="1" parent="1">
          <mxGeometry x="-260" y="830" width="120" height="60" as="geometry" />
        </mxCell>
        <mxCell id="yO4s0wZ_KHxFBeZVmtQ7-18" value="" style="endArrow=none;html=1;rounded=0;entryX=0;entryY=0.75;entryDx=0;entryDy=0;" edge="1" parent="1" target="2zzuOroNykCwQC_N2bHA-2">
          <mxGeometry width="50" height="50" relative="1" as="geometry">
            <mxPoint x="-230" y="843" as="sourcePoint" />
            <mxPoint x="-146" y="830" as="targetPoint" />
          </mxGeometry>
        </mxCell>
      </root>
    </mxGraphModel>
  </diagram>
</mxfile>
